<svg xmlns="http://www.w3.org/2000/svg" width="341" height="86" viewBox="0 0 341 86" fill="none">
    <path
        d="M148.689 10.5382C159.177 7.16929 167.571 4.77404 180.551 3.48813C191.462 2.40729 202.6 1.81691 213.588 1.64392C245.308 1.14457 275.511 5.69472 298.875 12.2393C323.777 19.2145 340.413 29.7557 339.086 42.1217C337.488 56.994 308.859 69.4049 272.232 76.3541C224.48 85.414 165.855 85.823 118.318 81.7593C75.0704 78.0624 21.9293 69.3252 5.38679 53.4026C-9.02464 39.5319 22.8025 23.6517 54.5684 14.7984C80.8941 7.46145 112.399 3.02928 143.403 4.5379C166.271 5.65067 189.433 8.35636 208.423 12.6056C229.811 17.3914 244.739 24.3193 260.601 31.1841"
        stroke="#4D2C5E" stroke-width="3" stroke-linecap="round" />
</svg>