<svg width="169" height="177" viewBox="0 0 169 177" fill="none" xmlns="http://www.w3.org/2000/svg">
<g id="Frame 38">
<g id="Group">
<path id="Vector" fill-rule="evenodd" clip-rule="evenodd" d="M16.3616 68.6905C17.3381 69.6504 18.89 69.6356 19.8579 68.6729C31.4609 57.5128 43.678 51.8362 56.1347 51.6939C68.264 51.5571 80.518 56.8191 92.5405 67.2449C95.2129 69.5205 99.3437 74.2587 102.977 79.8529C99.9284 84.2385 97.8967 89.432 96.8936 94.4355C95.4139 101.825 96.4913 108.62 98.9299 111.985C100.281 113.849 102.024 114.991 104.061 115.467C106.669 116.072 110.212 115.532 114.279 112.083C119.889 107.301 121.253 100.474 119.577 92.96C118.692 89.0101 116.904 84.8649 114.678 80.8815C117.254 78.825 120.459 77.6354 124.36 78.0637C132.617 78.9144 138.808 85.6942 143.211 93.6712C147.03 100.572 151.631 110.767 150.415 118.867C150.003 121.62 148.799 123.986 151.071 126.236C154.549 129.717 157.738 126.113 158.308 122.332C159.53 114.21 156.635 104.426 153.778 96.9332C148.534 83.1445 138.694 70.7428 125.406 69.0331C119.177 68.2602 113.892 69.9166 109.61 72.9942C105.547 67.3546 101.164 62.6886 98.2878 60.3468C84.0584 48.9921 69.7377 43.7117 55.8818 44.5149C42.0398 45.3101 28.6149 52.1063 16.3441 65.1941C15.3841 66.1706 15.3851 67.7305 16.3616 68.6905ZM108.656 90.8019C109.52 93.0935 110.104 95.345 110.276 97.4858C110.489 100.208 109.964 102.733 107.842 104.527C107.482 104.826 107.044 105.244 106.685 105.544C106.414 104.598 105.947 102.739 105.94 101.201C105.94 97.7674 106.721 93.6818 108.287 89.8767C108.435 90.1956 108.552 90.4948 108.656 90.8019Z" fill="#4D2C5E"/>
<path id="Vector_2" fill-rule="evenodd" clip-rule="evenodd" d="M106.358 105.805C106.115 105.67 105.882 105.584 105.901 105.775C105.929 106.016 106.091 105.977 106.358 105.805Z" fill="#4D2C5E"/>
<path id="Vector_3" fill-rule="evenodd" clip-rule="evenodd" d="M23.1598 63.2611C24.2903 60.7358 25.3827 58.0489 26.1621 55.4877C27.3611 51.491 27.8752 47.8346 26.8892 45.1728C26.5816 43.845 25.2428 43.0208 23.923 43.3422C22.5952 43.6498 21.771 44.9885 22.0924 46.3084C22.1604 46.9667 21.9307 47.65 21.7133 48.4181C21.2165 50.2287 20.1048 52.1189 18.8952 54.1574C17.3488 56.7575 15.4889 59.3551 13.9023 61.7582C12.4586 63.9319 11.2548 65.9487 10.4889 67.5475C9.2794 70.0633 9.2139 72.1756 9.4876 73.4128C9.56398 73.7359 12.2456 78.5396 16.8319 76.6261C18.4715 75.9365 22.535 73.9759 22.7357 73.8784C25.1771 72.5423 29.7119 70.1261 34.0309 68.8625C35.3957 68.4601 36.7134 68.1032 37.9141 68.0525C37.9777 68.1626 38.0413 68.2728 38.1187 68.375C39.24 69.9673 41.4207 70.3422 43.021 69.2346C43.9081 68.7042 45.0649 67.2101 45.3745 66.3154C45.9682 64.5774 45.3073 63.1782 43.6851 62.0219C41.4753 60.4522 38.2786 60.003 34.6849 60.2971C30.908 60.6235 26.6287 61.9559 23.1598 63.2611ZM19.1708 71.3286C18.903 71.8504 18.812 72.2334 19.1732 72.3186C19.5779 72.4154 19.3086 71.7264 19.1708 71.3286Z" fill="#4D2C5E"/>
</g>
</g>
</svg>
