<svg width="50" height="53" viewBox="0 0 50 53" fill="none" xmlns="http://www.w3.org/2000/svg">
<g id="speech-bubble">
<g id="speech-bubble_2">
<g id="speech-bubble_3">
<path id="Vector" d="M28.6383 47.6952L25.7821 42.3134L28.0821 35.6763V31.6099L21.0391 35.6763V39.7352L24.0457 44.9968C24.0873 45.0811 24.1601 45.1458 24.2487 45.1772L28.6383 47.6952Z" fill="white"/>
<path id="Vector_2" opacity="0.2" d="M28.6383 47.6952L25.7821 42.3134L28.0821 35.6763V31.6099L21.0391 35.6763V39.7352L24.0457 44.9968C24.0873 45.0811 24.1601 45.1458 24.2487 45.1772L28.6383 47.6952Z" fill="black"/>
<path id="Vector_3" d="M50 5.15978C49.9601 4.42663 49.7481 3.71318 49.3811 3.07722C49.0142 2.44126 48.5026 1.90067 47.8879 1.49922L46.1741 0.507042C45.5199 0.173749 44.7961 0 44.0619 0C43.3277 0 42.604 0.173749 41.9498 0.507042L2.11214 23.5076C1.49779 23.9095 0.986533 24.4502 0.619636 25.0861C0.252739 25.722 0.0404847 26.4352 0 27.1682V47.7334C0.0404847 48.4664 0.252739 49.1797 0.619636 49.8155C0.986533 50.4514 1.49779 50.9921 2.11214 51.394L3.83343 52.3862C4.48735 52.7159 5.20948 52.8877 5.94182 52.8877C6.67416 52.8877 7.3963 52.7159 8.05021 52.3862L25.4059 42.299L28.4125 47.5606C28.4552 47.6363 28.5189 47.698 28.5959 47.7384C28.6729 47.7787 28.7599 47.796 28.8465 47.788C28.933 47.7801 29.0155 47.7473 29.0838 47.6936C29.1522 47.6399 29.2036 47.5676 29.2318 47.4854L32.4564 38.2325L47.8879 29.3705C48.5025 28.9707 49.0141 28.4315 49.3811 27.7968C49.7481 27.162 49.9601 26.4496 50 25.7175V5.15978Z" fill="white"/>
<path id="Vector_4" opacity="0.2" d="M0.0229492 47.7336C0.063434 48.4666 0.275688 49.1799 0.642585 49.8157C1.00948 50.4516 1.52074 50.9923 2.13509 51.3942L3.83383 52.3864C4.4279 52.6864 5.07909 52.8563 5.744 52.8848C6.4089 52.9133 7.07224 52.7998 7.68981 52.5517C6.69763 52.9276 5.93847 52.3713 5.93847 51.1687V30.5734C5.9677 29.8253 6.19042 29.0975 6.58489 28.4612L0.639305 25.0337C0.258785 25.6634 0.0465405 26.3804 0.0229492 27.1158V47.7336Z" fill="black"/>
<path id="Vector_5" opacity="0.4" d="M49.9328 4.53641C49.6848 3.63443 48.8655 3.3488 47.8958 3.91254L8.07321 26.9582C7.44353 27.3449 6.92542 27.8889 6.5699 28.5367L0.631836 25.1092C0.989573 24.463 1.5072 23.9195 2.13514 23.5307L41.9728 0.522584C42.628 0.192778 43.3514 0.0209961 44.0849 0.0209961C44.8185 0.0209961 45.5419 0.192778 46.1971 0.522584L47.9259 1.51477C48.4446 1.85965 48.8892 2.30453 49.2338 2.82337C49.5784 3.34222 49.816 3.92459 49.9328 4.53641Z" fill="#3C68BC"/>
</g>
<path id="Vector_6" d="M17.5962 30.9033C16.7762 31.4379 16.0937 32.1581 15.604 33.0056C15.1143 33.8532 14.8311 34.8041 14.7775 35.7815C14.7775 37.5855 16.0402 38.3071 17.5962 37.4126C18.4161 36.878 19.0986 36.1578 19.5883 35.3102C20.0781 34.4627 20.3612 33.5117 20.4149 32.5344C20.4149 30.7154 19.1521 30.0088 17.5962 30.9033Z" fill="#3C68BC"/>
<path id="Vector_7" d="M27.9845 24.8984C27.1641 25.4325 26.4813 26.1526 25.9915 27.0003C25.5018 27.8479 25.2188 28.7991 25.1658 29.7766C25.1658 31.5731 26.4285 32.3022 27.9845 31.4002C28.8049 30.866 29.4877 30.1459 29.9774 29.2983C30.4672 28.4507 30.7501 27.4995 30.8032 26.5219C30.8032 24.7029 29.5404 23.9964 27.9845 24.8984Z" fill="#3C68BC"/>
<path id="Vector_8" d="M38.4097 18.8851C37.5896 19.4213 36.9071 20.143 36.4175 20.9917C35.9278 21.8404 35.6447 22.7925 35.591 23.7709C35.591 25.5673 36.8538 26.2889 38.4097 25.3944C39.2287 24.8595 39.91 24.139 40.3985 23.2914C40.8869 22.4438 41.1687 21.493 41.2209 20.5162C41.1833 18.6897 39.913 17.9906 38.4097 18.8851Z" fill="#3C68BC"/>
</g>
</g>
</svg>
