<svg width="60" height="73" viewBox="0 0 60 73" fill="none" xmlns="http://www.w3.org/2000/svg">
<g id="Group 14">
<ellipse id="Ellipse 86" cx="28.6886" cy="71.2457" rx="15.8574" ry="1.03179" fill="#BC5AB9"/>
<g id="Group 8">
<g id="&#230;&#137;&#139;02" filter="url(#filter0_i_33_4094)">
<path d="M2.23035 38.1358C6.25756 29.9624 10.7453 37.8777 13.3344 40.6872C14.1312 41.6334 15.7556 43.6332 15.8788 44.0626L7.10228 48.4479C6.9714 47.8569 7.22308 47.9913 4.04434 45.5239C1.50134 43.5499 1.34129 39.9402 2.23035 38.1358Z" fill="white"/>
</g>
<path id="&#232;&#162;&#150;&#229;&#173;&#144;01" d="M10.7882 38.2314C11.9779 38.7839 14.1479 41.2492 14.8843 42.5549L20.2174 45.0769L16.6782 53.0031C11.5717 51.1909 6.94151 49.1171 4.72462 46.0942L10.7882 38.2314Z" fill="#011E2A"/>
<path id="&#232;&#163;&#133;&#233;&#165;&#176;" d="M5.01001 45.9383C6.56635 43.9247 10.5548 38.6294 10.7716 37.9219" stroke="#FFC100" stroke-width="1.40635" stroke-linecap="round"/>
</g>
<g id="Group 12">
<g id="&#230;&#137;&#139;01" filter="url(#filter1_i_33_4094)">
<path d="M46.5378 57.5788C53.9668 55.011 47.8008 48.7899 44.9122 46.2892C43.9418 45.5222 41.8927 43.9606 41.4596 43.8507L37.3486 52.759C37.9433 52.8715 37.8012 52.6241 40.3661 55.7248C42.4179 58.2054 45.3355 57.9944 46.5378 57.5788Z" fill="white"/>
</g>
<path id="&#232;&#162;&#150;&#229;&#173;&#144;02" d="M47.6147 48.8683C47.0256 47.6963 44.4333 45.6293 43.1054 44.9338L37.5085 45.7735L40.2342 54.4917L47.6147 48.8683Z" fill="#021822"/>
<path id="&#232;&#163;&#133;&#233;&#165;&#176;_2" d="M41.1447 53.9646C43.1091 52.3466 47.2131 49.0508 47.9136 48.8121" stroke="#FFC100" stroke-width="1.40635" stroke-linecap="round"/>
</g>
<g id="&#232;&#186;&#171;&#229;&#173;&#144;" filter="url(#filter2_i_33_4094)">
<path d="M29.0886 66.7625V61.8345H27.9291V66.7625C28.508 67.9674 27.9674 68.8606 27.436 69.281C27.2077 69.5779 25.8388 70.1718 22.1898 70.1718C18.5407 70.1718 17.6662 69.853 17.048 68.9969C15.7333 67.1765 12.2707 60.7375 12.909 52.8447C13.4594 46.0385 14.9843 44.7934 16.7109 43.169C19.3802 40.6577 39.0453 40.4901 40.8243 43.169C41.7486 44.5608 43.3326 49.5707 43.6952 52.8447C44.7068 62.1118 40.1441 69.1388 39.6681 69.8719L39.6578 69.8878C39.2424 70.5282 38.4682 70.9786 34.3857 71.0627C31.1197 71.13 29.664 70.5583 29.1818 70.1718C28.124 69.114 28.632 67.5223 29.0886 66.7625Z" fill="white"/>
</g>
<path id="&#232;&#161;&#163;&#230;&#156;&#141;" d="M13.1636 58.7503C11.3864 49.5683 15.0198 43.3552 16.8681 42.0869L40.701 43.3975C43.8073 45.9944 44.1484 54.7147 43.7085 58.7503H13.1636Z" fill="#0F2630"/>
<path id="&#230;&#138;&#149;&#229;&#189;&#177;" d="M31.3101 49.2278C23.7765 48.8157 18.1807 44.4631 16.4625 43.467C21.4327 37.9157 40.6585 42.9247 44.1581 40.994C44.1581 48.4879 42.3474 49.8317 31.3101 49.2278Z" fill="#020709"/>
<g id="&#229;&#164;&#180;">
<g id="&#232;&#128;&#179;&#230;&#156;&#181;">
<g id="&#232;&#128;&#179;&#230;&#156;&#181;01">
<ellipse id="Ellipse 2" cx="16.7315" cy="13.2446" rx="4.73017" ry="5.67598" transform="rotate(1.4899 16.7315 13.2446)" fill="white"/>
<ellipse id="Ellipse 3" cx="16.2022" cy="11.9397" rx="1.77021" ry="2.12417" transform="rotate(1.4899 16.2022 11.9397)" fill="#FFF1C6"/>
</g>
<g id="&#232;&#128;&#179;&#230;&#156;&#181;02">
<path id="Ellipse 4" d="M47.2406 18.8869C46.3667 21.8974 47.6303 24.9104 50.0629 25.6166C50.7406 25.8133 55.1761 24.4548 56.0501 21.4443C56.924 18.4339 55.6604 15.4209 53.2278 14.7147C50.7951 14.0085 48.1146 15.8765 47.2406 18.8869Z" fill="#E5EDFF"/>
<ellipse id="Ellipse 5" cx="1.77021" cy="2.12417" rx="1.77021" ry="2.12417" transform="matrix(-0.960352 -0.278792 -0.278792 0.960352 54.976 17.5769)" fill="#E9DEBD"/>
</g>
</g>
<g id="&#229;&#164;&#180;_2" filter="url(#filter3_i_33_4094)">
<path fill-rule="evenodd" clip-rule="evenodd" d="M34.3669 8.12352C36.7051 7.74857 40.0071 6.91035 43.055 5.27131C43.7364 5.02709 45.0885 4.94623 45.0454 6.57659C45.0089 7.95954 44.1794 9.4211 42.8916 10.6297C53.8349 15.8288 56.6172 26.9331 55.2386 35.7988C53.5629 46.5742 41.683 49.2328 28.5761 47.1946C15.4691 45.1564 4.93215 38.4276 6.60778 27.6522C8.2738 16.9386 18.3961 5.33154 34.3669 8.12352Z" fill="white"/>
</g>
<g id="&#231;&#156;&#188;&#231;&#157;&#155;">
<circle id="&#231;&#156;&#188;&#233;&#187;&#145;01" cx="22.5005" cy="25.1304" r="5.05437" transform="rotate(8.83901 22.5005 25.1304)" fill="#1D1D1D"/>
<circle id="&#231;&#156;&#188;&#233;&#187;&#145;02" cx="39.4214" cy="27.8325" r="5.05437" transform="rotate(8.83901 39.4214 27.8325)" fill="#1D1D1D"/>
<circle id="&#233;&#171;&#152;&#229;&#133;&#137;" cx="25.7624" cy="21.3621" r="0.868417" transform="rotate(23.839 25.7624 21.3621)" fill="white"/>
<circle id="&#233;&#171;&#152;&#229;&#133;&#137;_2" cx="42.3683" cy="23.6665" r="1.01149" transform="rotate(23.839 42.3683 23.6665)" fill="white"/>
</g>
<g id="&#231;&#156;&#188;&#233;&#149;&#156;">
<rect id="Rectangle 1" x="22.0331" y="17.1868" width="3.54809" height="13.2021" transform="rotate(29.0279 22.0331 17.1868)" fill="#B8D4FF" fill-opacity="0.3"/>
<rect id="Rectangle 2" x="44.8916" y="21.4595" width="2.37913" height="13.8488" transform="rotate(29.0279 44.8916 21.4595)" fill="#B8D4FF" fill-opacity="0.1"/>
<g id="Line 1" filter="url(#filter4_i_33_4094)">
<line x1="29.1575" y1="24.7139" x2="33.377" y2="25.37" stroke="#1D48B5" stroke-width="1.38562"/>
</g>
<g id="Ellipse 10" filter="url(#filter5_di_33_4094)">
<circle cx="40.7007" cy="27.0132" r="7.199" transform="rotate(8.83901 40.7007 27.0132)" stroke="#C67DC9" stroke-width="1.38562" shape-rendering="crispEdges"/>
</g>
<g id="Ellipse 11" filter="url(#filter6_di_33_4094)">
<circle cx="21.9221" cy="24.4984" r="6.98056" transform="rotate(8.83901 21.9221 24.4984)" stroke="#C67DC9" stroke-width="1.38562" shape-rendering="crispEdges"/>
</g>
</g>
<g id="&#233;&#188;&#187;&#229;&#173;&#144;">
<ellipse id="Ellipse 76" cx="30.677" cy="31.8951" rx="2.28532" ry="1.40635" transform="rotate(8.83901 30.677 31.8951)" fill="#1F1F1F"/>
<ellipse id="Ellipse 77" cx="29.5106" cy="31.2322" rx="0.5746" ry="0.383066" transform="rotate(-14.4317 29.5106 31.2322)" fill="white"/>
</g>
<g id="&#229;&#152;&#180;">
<path id="Vector 75" d="M33.3114 37.371L25.7425 35.5736C25.2648 37.7376 25.0402 40.7917 28.8262 41.5018C31.855 42.0699 33.0783 38.9846 33.3114 37.371Z" fill="#F44D3D"/>
<path id="Intersect" fill-rule="evenodd" clip-rule="evenodd" d="M31.8165 40.5847C30.9666 40.084 29.8857 39.6526 28.6763 39.3672C27.6052 39.1144 26.5732 39.0092 25.6676 39.0356C26.0655 40.3819 27.1034 40.9947 28.3708 41.4236C29.8181 41.9135 30.9819 41.4178 31.8165 40.5847Z" fill="#FC6D5C"/>
<path id="Vector 76" d="M30.453 37.6796L28.1796 37.1005C27.644 36.964 27.2715 36.4785 27.2784 35.9258L32.2292 37.1174C31.7923 37.6274 31.1038 37.8453 30.453 37.6796Z" fill="white"/>
</g>
</g>
</g>
<defs>
<filter id="filter0_i_33_4094" x="-1.07317" y="31.7244" width="16.952" height="16.7233" filterUnits="userSpaceOnUse" color-interpolation-filters="sRGB">
<feFlood flood-opacity="0" result="BackgroundImageFix"/>
<feBlend mode="normal" in="SourceGraphic" in2="BackgroundImageFix" result="shape"/>
<feColorMatrix in="SourceAlpha" type="matrix" values="0 0 0 0 0 0 0 0 0 0 0 0 0 0 0 0 0 0 127 0" result="hardAlpha"/>
<feOffset dx="-2.8127" dy="-2.8127"/>
<feGaussianBlur stdDeviation="2.10953"/>
<feComposite in2="hardAlpha" operator="arithmetic" k2="-1" k3="1"/>
<feColorMatrix type="matrix" values="0 0 0 0 0.803922 0 0 0 0 0.870588 0 0 0 0 1 0 0 0 1 0"/>
<feBlend mode="normal" in2="shape" result="effect1_innerShadow_33_4094"/>
</filter>
<filter id="filter1_i_33_4094" x="36.6455" y="41.0379" width="13.42" height="16.7961" filterUnits="userSpaceOnUse" color-interpolation-filters="sRGB">
<feFlood flood-opacity="0" result="BackgroundImageFix"/>
<feBlend mode="normal" in="SourceGraphic" in2="BackgroundImageFix" result="shape"/>
<feColorMatrix in="SourceAlpha" type="matrix" values="0 0 0 0 0 0 0 0 0 0 0 0 0 0 0 0 0 0 127 0" result="hardAlpha"/>
<feOffset dx="-0.703175" dy="-2.8127"/>
<feGaussianBlur stdDeviation="2.10953"/>
<feComposite in2="hardAlpha" operator="arithmetic" k2="-1" k3="1"/>
<feColorMatrix type="matrix" values="0 0 0 0 0.803922 0 0 0 0 0.870588 0 0 0 0 1 0 0 0 1 0"/>
<feBlend mode="normal" in2="shape" result="effect1_innerShadow_33_4094"/>
</filter>
<filter id="filter2_i_33_4094" x="12.128" y="40.1674" width="31.7131" height="30.901" filterUnits="userSpaceOnUse" color-interpolation-filters="sRGB">
<feFlood flood-opacity="0" result="BackgroundImageFix"/>
<feBlend mode="normal" in="SourceGraphic" in2="BackgroundImageFix" result="shape"/>
<feColorMatrix in="SourceAlpha" type="matrix" values="0 0 0 0 0 0 0 0 0 0 0 0 0 0 0 0 0 0 127 0" result="hardAlpha"/>
<feOffset dx="-0.703175" dy="-1.05476"/>
<feGaussianBlur stdDeviation="2.10953"/>
<feComposite in2="hardAlpha" operator="arithmetic" k2="-1" k3="1"/>
<feColorMatrix type="matrix" values="0 0 0 0 0.803922 0 0 0 0 0.870588 0 0 0 0 1 0 0 0 1 0"/>
<feBlend mode="normal" in2="shape" result="effect1_innerShadow_33_4094"/>
</filter>
<filter id="filter3_i_33_4094" x="3.66087" y="2.36621" width="51.904" height="45.4605" filterUnits="userSpaceOnUse" color-interpolation-filters="sRGB">
<feFlood flood-opacity="0" result="BackgroundImageFix"/>
<feBlend mode="normal" in="SourceGraphic" in2="BackgroundImageFix" result="shape"/>
<feColorMatrix in="SourceAlpha" type="matrix" values="0 0 0 0 0 0 0 0 0 0 0 0 0 0 0 0 0 0 127 0" result="hardAlpha"/>
<feOffset dx="-2.77124" dy="-2.77124"/>
<feGaussianBlur stdDeviation="2.30937"/>
<feComposite in2="hardAlpha" operator="arithmetic" k2="-1" k3="1"/>
<feColorMatrix type="matrix" values="0 0 0 0 0.803271 0 0 0 0 0.868847 0 0 0 0 1 0 0 0 1 0"/>
<feBlend mode="normal" in2="shape" result="effect1_innerShadow_33_4094"/>
</filter>
<filter id="filter4_i_33_4094" x="29.0511" y="24.0293" width="4.43237" height="2.48726" filterUnits="userSpaceOnUse" color-interpolation-filters="sRGB">
<feFlood flood-opacity="0" result="BackgroundImageFix"/>
<feBlend mode="normal" in="SourceGraphic" in2="BackgroundImageFix" result="shape"/>
<feColorMatrix in="SourceAlpha" type="matrix" values="0 0 0 0 0 0 0 0 0 0 0 0 0 0 0 0 0 0 127 0" result="hardAlpha"/>
<feOffset dy="0.461874"/>
<feGaussianBlur stdDeviation="0.230937"/>
<feComposite in2="hardAlpha" operator="arithmetic" k2="-1" k3="1"/>
<feColorMatrix type="matrix" values="0 0 0 0 0.133333 0 0 0 0 0.309804 0 0 0 0 0.74902 0 0 0 1 0"/>
<feBlend mode="normal" in2="shape" result="effect1_innerShadow_33_4094"/>
</filter>
<filter id="filter5_di_33_4094" x="32.3459" y="18.1964" width="19.4809" height="19.4811" filterUnits="userSpaceOnUse" color-interpolation-filters="sRGB">
<feFlood flood-opacity="0" result="BackgroundImageFix"/>
<feColorMatrix in="SourceAlpha" type="matrix" values="0 0 0 0 0 0 0 0 0 0 0 0 0 0 0 0 0 0 127 0" result="hardAlpha"/>
<feOffset dx="1.38562" dy="0.923748"/>
<feGaussianBlur stdDeviation="0.923748"/>
<feComposite in2="hardAlpha" operator="out"/>
<feColorMatrix type="matrix" values="0 0 0 0 0 0 0 0 0 0 0 0 0 0 0 0 0 0 0.15 0"/>
<feBlend mode="normal" in2="BackgroundImageFix" result="effect1_dropShadow_33_4094"/>
<feBlend mode="normal" in="SourceGraphic" in2="effect1_dropShadow_33_4094" result="shape"/>
<feColorMatrix in="SourceAlpha" type="matrix" values="0 0 0 0 0 0 0 0 0 0 0 0 0 0 0 0 0 0 127 0" result="hardAlpha"/>
<feOffset dy="0.923748"/>
<feGaussianBlur stdDeviation="0.461874"/>
<feComposite in2="hardAlpha" operator="arithmetic" k2="-1" k3="1"/>
<feColorMatrix type="matrix" values="0 0 0 0 0.244065 0 0 0 0 0.451742 0 0 0 0 0.975879 0 0 0 1 0"/>
<feBlend mode="normal" in2="shape" result="effect2_innerShadow_33_4094"/>
</filter>
<filter id="filter6_di_33_4094" x="13.7857" y="15.9002" width="19.0439" height="19.0439" filterUnits="userSpaceOnUse" color-interpolation-filters="sRGB">
<feFlood flood-opacity="0" result="BackgroundImageFix"/>
<feColorMatrix in="SourceAlpha" type="matrix" values="0 0 0 0 0 0 0 0 0 0 0 0 0 0 0 0 0 0 127 0" result="hardAlpha"/>
<feOffset dx="1.38562" dy="0.923748"/>
<feGaussianBlur stdDeviation="0.923748"/>
<feComposite in2="hardAlpha" operator="out"/>
<feColorMatrix type="matrix" values="0 0 0 0 0 0 0 0 0 0 0 0 0 0 0 0 0 0 0.15 0"/>
<feBlend mode="normal" in2="BackgroundImageFix" result="effect1_dropShadow_33_4094"/>
<feBlend mode="normal" in="SourceGraphic" in2="effect1_dropShadow_33_4094" result="shape"/>
<feColorMatrix in="SourceAlpha" type="matrix" values="0 0 0 0 0 0 0 0 0 0 0 0 0 0 0 0 0 0 127 0" result="hardAlpha"/>
<feOffset dy="0.923748"/>
<feGaussianBlur stdDeviation="0.461874"/>
<feComposite in2="hardAlpha" operator="arithmetic" k2="-1" k3="1"/>
<feColorMatrix type="matrix" values="0 0 0 0 0.244065 0 0 0 0 0.451742 0 0 0 0 0.975879 0 0 0 1 0"/>
<feBlend mode="normal" in2="shape" result="effect2_innerShadow_33_4094"/>
</filter>
</defs>
</svg>
