<svg width="50" height="77" viewBox="0 0 50 77" fill="none" xmlns="http://www.w3.org/2000/svg">
<path d="M0.135212 77.8369C0.135212 77.8369 -0.354614 80.4589 3.95969 80.651C8.274 80.8431 17.1562 81.0563 17.1562 81.0563L16.5991 75.4224L2.76875 74.4619L0.559728 76.087L0.135212 77.8369Z" fill="#E0E0E0"/>
<path d="M46.8838 0.586426H5.70773C4.01032 0.586426 2.63431 1.96244 2.63431 3.65984V78.5244C2.63431 80.2218 4.01032 81.5979 5.70773 81.5979H46.8838C48.5812 81.5979 49.9572 80.2218 49.9572 78.5244V3.65984C49.9572 1.96244 48.5812 0.586426 46.8838 0.586426Z" fill="#263238"/>
<path d="M5.24097 4.30127H47.3487V78.5205H6.24175C5.97633 78.5205 5.72177 78.415 5.53409 78.2273C5.34641 78.0396 5.24097 77.7851 5.24097 77.5197V4.30127Z" fill="white"/>
<path d="M30.4315 2.53224H21.4264C21.2837 2.53224 21.1469 2.47557 21.046 2.37471C20.9452 2.27384 20.8885 2.13704 20.8885 1.99439C20.8885 1.85174 20.9452 1.71494 21.046 1.61407C21.1469 1.51321 21.2837 1.45654 21.4264 1.45654H30.4315C30.5741 1.45654 30.7109 1.51321 30.8118 1.61407C30.9126 1.71494 30.9693 1.85174 30.9693 1.99439C30.9693 2.13704 30.9126 2.27384 30.8118 2.37471C30.7109 2.47557 30.5741 2.53224 30.4315 2.53224Z" fill="#455A64"/>
<path d="M10.9826 12.231V12.7592H10.9403C10.9129 12.6353 10.8454 12.5239 10.7482 12.4423C10.6627 12.3706 10.5544 12.3317 10.4428 12.3328C10.3495 12.332 10.2582 12.3602 10.1815 12.4134C10.1032 12.4662 10.0424 12.5411 10.0067 12.6286C9.95698 12.7504 9.93279 12.8812 9.93567 13.0128C9.93416 13.1389 9.95164 13.2645 9.98753 13.3854C10.0136 13.4852 10.07 13.5744 10.1489 13.6409C10.2316 13.7015 10.3326 13.732 10.4351 13.7273C10.5267 13.7285 10.6172 13.7067 10.6983 13.6639C10.7953 13.6076 10.8812 13.5341 10.9518 13.4469V13.5775C10.877 13.6592 10.7861 13.7246 10.6848 13.7696C10.5819 13.812 10.4715 13.833 10.3602 13.8311C10.2097 13.834 10.0607 13.8003 9.92607 13.7331C9.8021 13.6704 9.69974 13.5721 9.63217 13.4507C9.56619 13.3334 9.53115 13.2012 9.53036 13.0665C9.53065 12.9206 9.56977 12.7774 9.6437 12.6516C9.71726 12.5242 9.82418 12.4193 9.95296 12.3481C10.0791 12.2775 10.2213 12.2404 10.3659 12.2406C10.4825 12.2428 10.5978 12.2662 10.7059 12.3097C10.7475 12.3289 10.7914 12.3424 10.8366 12.3501C10.8483 12.3503 10.8599 12.3482 10.8708 12.3439C10.8816 12.3396 10.8916 12.3332 10.9 12.3251C10.9197 12.301 10.9317 12.2716 10.9345 12.2406L10.9826 12.231Z" fill="#263238"/>
<path d="M11.6163 12.2671V12.876C11.662 12.8246 11.7159 12.7811 11.7758 12.7473C11.8219 12.7225 11.8733 12.7094 11.9256 12.7089C11.987 12.7073 12.047 12.7278 12.0946 12.7665C12.1391 12.7998 12.172 12.8461 12.1888 12.8991C12.2077 12.9828 12.2154 13.0687 12.2118 13.1545V13.5656C12.2071 13.6165 12.2143 13.6678 12.2329 13.7154C12.2578 13.7393 12.2907 13.753 12.3251 13.7539V13.7942H11.7911V13.7539C11.8076 13.7523 11.8236 13.7473 11.8381 13.7394C11.8526 13.7315 11.8654 13.7207 11.8757 13.7078C11.8941 13.6628 11.9014 13.614 11.8968 13.5656V13.0931C11.8995 13.0384 11.8957 12.9836 11.8853 12.9298C11.8798 12.9091 11.8676 12.8909 11.8507 12.8779C11.8354 12.8656 11.8165 12.8588 11.7969 12.8587C11.7647 12.8597 11.7336 12.8712 11.7085 12.8914C11.671 12.9208 11.6397 12.9574 11.6163 12.9989V13.5637C11.6122 13.6111 11.618 13.6589 11.6336 13.7039C11.6439 13.718 11.6571 13.7296 11.6724 13.7379C11.6877 13.7462 11.7046 13.751 11.722 13.7519V13.7923H11.188V13.7519C11.2058 13.7513 11.2234 13.7471 11.2395 13.7395C11.2557 13.7319 11.2702 13.7211 11.2821 13.7078C11.3003 13.6621 11.3069 13.6126 11.3013 13.5637V12.4938C11.3061 12.4435 11.2988 12.3928 11.2802 12.3458C11.2553 12.322 11.2224 12.3083 11.188 12.3074V12.2671H11.6163Z" fill="#263238"/>
<path d="M13.0494 13.6368C12.958 13.7326 12.8353 13.7925 12.7036 13.8058C12.6761 13.8066 12.6487 13.8018 12.623 13.7917C12.5974 13.7816 12.5741 13.7663 12.5545 13.7469C12.5349 13.7275 12.5195 13.7044 12.5091 13.6788C12.4988 13.6533 12.4937 13.6259 12.4942 13.5984C12.4951 13.5572 12.5049 13.5167 12.5228 13.4796C12.5407 13.4424 12.5663 13.4096 12.598 13.3832C12.7362 13.2775 12.888 13.1909 13.0494 13.1258V13.0202C13.0529 12.9698 13.0484 12.9193 13.0359 12.8704C13.0261 12.8478 13.0093 12.8289 12.9879 12.8166C12.9637 12.8015 12.9358 12.7935 12.9072 12.7935C12.8645 12.7918 12.8223 12.8032 12.7862 12.8262C12.7777 12.8311 12.7706 12.8381 12.7656 12.8465C12.7605 12.8549 12.7577 12.8644 12.7574 12.8742C12.7604 12.8965 12.7713 12.9169 12.7881 12.9318C12.8135 12.9568 12.8286 12.9904 12.8304 13.026C12.8305 13.0436 12.8269 13.061 12.82 13.0772C12.8131 13.0934 12.8029 13.108 12.7901 13.1201C12.7605 13.1462 12.7219 13.16 12.6825 13.1585C12.6387 13.1592 12.5961 13.1435 12.5634 13.1143C12.5486 13.1022 12.5366 13.087 12.5283 13.0697C12.52 13.0525 12.5156 13.0336 12.5154 13.0144C12.5174 12.9569 12.5406 12.9021 12.5807 12.8608C12.6289 12.8075 12.6906 12.7684 12.7593 12.7474C12.8358 12.7205 12.9164 12.7069 12.9975 12.7071C13.0816 12.7027 13.1649 12.7249 13.2357 12.7705C13.2857 12.8045 13.3245 12.8527 13.3471 12.9088C13.3625 12.98 13.3683 13.053 13.3644 13.1258V13.535C13.361 13.565 13.361 13.5953 13.3644 13.6253C13.3667 13.6361 13.3721 13.6461 13.3798 13.6541C13.3885 13.6569 13.3979 13.6569 13.4067 13.6541C13.4259 13.6541 13.4451 13.6406 13.4662 13.6137L13.4989 13.6406C13.4698 13.6889 13.4304 13.7303 13.3836 13.7616C13.3425 13.7864 13.2952 13.799 13.2472 13.7981C13.1963 13.8015 13.1459 13.7865 13.1051 13.7559C13.0731 13.724 13.0534 13.6818 13.0494 13.6368ZM13.0494 13.5542V13.2027C12.9743 13.2458 12.9089 13.304 12.8573 13.3736C12.8286 13.4082 12.813 13.4517 12.8131 13.4966C12.8129 13.5133 12.8161 13.5299 12.8223 13.5454C12.8286 13.5608 12.8379 13.5749 12.8496 13.5869C12.8598 13.5973 12.8721 13.6055 12.8856 13.6108C12.8992 13.6161 12.9138 13.6184 12.9284 13.6176C12.9745 13.6102 13.017 13.5879 13.0494 13.5542Z" fill="#263238"/>
<path d="M14.0252 13.6848V14.0689C14.0224 14.106 14.027 14.1432 14.0386 14.1784C14.0459 14.1972 14.0595 14.2128 14.077 14.2226C14.1118 14.2333 14.1482 14.2379 14.1846 14.2361V14.2764H13.5834V14.2361C13.6025 14.2367 13.6215 14.2334 13.6394 14.2265C13.6572 14.2195 13.6734 14.2091 13.6871 14.1957C13.7078 14.1541 13.7159 14.1074 13.7102 14.0613V12.9587C13.7155 12.9097 13.7062 12.8602 13.6833 12.8165C13.6698 12.8041 13.6541 12.7946 13.637 12.7883C13.6198 12.782 13.6016 12.7792 13.5834 12.78V12.7397H14.0252V12.878C14.0541 12.8313 14.0928 12.7913 14.1385 12.7608C14.1915 12.7258 14.2536 12.7071 14.3172 12.707C14.3938 12.7071 14.4681 12.7328 14.5284 12.78C14.5944 12.8332 14.6443 12.9037 14.6725 12.9836C14.706 13.072 14.723 13.1658 14.7225 13.2602C14.7238 13.36 14.7062 13.459 14.6706 13.5522C14.6403 13.6288 14.589 13.6954 14.5227 13.7443C14.4676 13.7842 14.4027 13.8081 14.3349 13.8135C14.2672 13.8189 14.1992 13.8056 14.1385 13.775C14.0956 13.752 14.0572 13.7214 14.0252 13.6848ZM14.0252 13.5714C14.0461 13.6093 14.076 13.6414 14.1121 13.6652C14.1482 13.689 14.1896 13.7036 14.2326 13.7078C14.2534 13.7071 14.2736 13.7008 14.2912 13.6896C14.3087 13.6785 14.323 13.6629 14.3325 13.6444C14.4125 13.4064 14.4125 13.1487 14.3325 12.9106C14.3209 12.8905 14.3041 12.8738 14.2838 12.8623C14.2635 12.8508 14.2406 12.845 14.2173 12.8453C14.1424 12.8453 14.079 12.8991 14.0252 13.0086V13.5714Z" fill="#263238"/>
<path d="M15.3219 12.3537V12.7379H15.5716V12.8436H15.3219V13.4928C15.3172 13.5317 15.3172 13.5711 15.3219 13.61C15.3269 13.6267 15.337 13.6415 15.3507 13.6523C15.362 13.6621 15.3761 13.6682 15.391 13.6696C15.4391 13.6696 15.4852 13.6331 15.5293 13.5581L15.5639 13.5831C15.5442 13.6459 15.5047 13.7007 15.4515 13.7395C15.3982 13.7782 15.3339 13.7988 15.2681 13.7983C15.2063 13.8008 15.1456 13.7811 15.0971 13.7425C15.0558 13.7116 15.0249 13.6687 15.0088 13.6196C15.0024 13.5506 15.0024 13.4812 15.0088 13.4122V12.8359H14.8705V12.7955C14.9586 12.7348 15.0397 12.6646 15.1125 12.5862C15.1792 12.5103 15.2372 12.4272 15.2854 12.3384L15.3219 12.3537Z" fill="#263238"/>
<path d="M16.5627 13.2276H15.9865C15.9866 13.3469 16.0257 13.4629 16.0979 13.558C16.1202 13.5877 16.1493 13.6117 16.1827 13.628C16.216 13.6444 16.2528 13.6526 16.29 13.6521C16.3333 13.652 16.3755 13.6386 16.411 13.6137C16.4593 13.5774 16.4999 13.5316 16.5301 13.4792L16.5685 13.5042C16.5256 13.6007 16.4596 13.6851 16.3764 13.7501C16.3066 13.7987 16.2233 13.8242 16.1382 13.8231C16.0683 13.8269 15.9987 13.8122 15.9363 13.7805C15.8739 13.7488 15.8209 13.7012 15.7828 13.6425C15.7152 13.5353 15.6817 13.41 15.6868 13.2833C15.6781 13.1306 15.729 12.9804 15.8289 12.8645C15.8696 12.8152 15.9206 12.7755 15.9784 12.7483C16.0362 12.721 16.0993 12.7069 16.1632 12.707C16.2162 12.7075 16.2684 12.7196 16.3163 12.7425C16.3641 12.7654 16.4062 12.7985 16.4398 12.8396C16.5252 12.9504 16.5688 13.0878 16.5627 13.2276ZM16.2861 13.1527C16.2894 13.0689 16.2823 12.985 16.265 12.903C16.2563 12.8636 16.2355 12.828 16.2054 12.8012C16.1874 12.787 16.165 12.7796 16.1421 12.78C16.1223 12.7801 16.103 12.7855 16.0861 12.7956C16.0692 12.8058 16.0553 12.8203 16.046 12.8377C15.9974 12.9207 15.974 13.0162 15.9788 13.1123V13.1527H16.2861Z" fill="#263238"/>
<path d="M17.1312 12.7398V12.978C17.1809 12.8941 17.2461 12.8205 17.3233 12.761C17.3677 12.7289 17.4204 12.7102 17.4751 12.7072C17.4939 12.7063 17.5128 12.7094 17.5303 12.7164C17.5479 12.7233 17.5637 12.7339 17.5769 12.7475C17.59 12.7624 17.6 12.7798 17.6062 12.7986C17.6125 12.8174 17.6149 12.8373 17.6134 12.857C17.6161 12.8992 17.6031 12.941 17.5769 12.9742C17.566 12.987 17.5525 12.9973 17.5372 13.0043C17.5219 13.0113 17.5053 13.0148 17.4885 13.0145C17.4503 13.0152 17.4133 13.0015 17.3848 12.9761L17.3348 12.9339C17.326 12.9319 17.3168 12.9319 17.3079 12.9339C17.285 12.9341 17.263 12.943 17.2465 12.9588C17.2137 12.9874 17.1897 13.0247 17.1773 13.0664C17.1519 13.1445 17.1395 13.2263 17.1408 13.3084V13.6119C17.1372 13.6387 17.1372 13.6658 17.1408 13.6926C17.1483 13.7119 17.1627 13.7276 17.1812 13.7368C17.2098 13.7486 17.2404 13.7551 17.2714 13.756V13.7963H16.6952V13.756C16.7124 13.7564 16.7295 13.7532 16.7454 13.7466C16.7612 13.74 16.7756 13.7301 16.7874 13.7176C16.8102 13.6643 16.8188 13.6061 16.8123 13.5485V12.9723C16.8173 12.934 16.8173 12.8953 16.8123 12.857C16.8071 12.8384 16.7955 12.8221 16.7797 12.8109C16.7567 12.7981 16.7311 12.7908 16.7048 12.7898V12.7494L17.1312 12.7398Z" fill="#263238"/>
<path d="M18.9253 12.2347V13.4833C18.9228 13.5431 18.9266 13.603 18.9368 13.6619C18.9459 13.6886 18.9644 13.7111 18.9887 13.7253C19.0279 13.745 19.0717 13.7536 19.1155 13.7503H19.1501V13.7925H18.3471V13.7503H18.3875C18.4348 13.7537 18.4822 13.7458 18.5258 13.7272C18.5523 13.7151 18.573 13.693 18.5834 13.6658C18.5966 13.6026 18.6012 13.538 18.5968 13.4737V12.6823C18.5989 12.6379 18.5957 12.5934 18.5872 12.5497C18.5791 12.531 18.5657 12.515 18.5488 12.5036C18.5299 12.4916 18.5078 12.4856 18.4854 12.4863C18.4375 12.4886 18.3905 12.5004 18.3471 12.5209L18.326 12.4806L18.8869 12.2251L18.9253 12.2347Z" fill="#263238"/>
<path d="M12.986 22.1101V23.3453H12.8727C12.8282 23.1282 12.747 22.9203 12.6326 22.7306C12.5404 22.6021 12.4167 22.4996 12.2734 22.4328C12.1297 22.383 11.9776 22.3621 11.8258 22.3714H11.4858V25.8923C11.4766 26.0388 11.4896 26.1858 11.5242 26.3284C11.5575 26.3943 11.6105 26.448 11.676 26.4821C11.7709 26.5306 11.8769 26.5531 11.9833 26.5474H12.1351V26.6742H9.73782V26.5493H9.88957C10.0007 26.5543 10.1112 26.5304 10.2104 26.4801C10.2724 26.4428 10.3203 26.3861 10.3467 26.3188C10.3817 26.1802 10.3947 26.0369 10.3852 25.8943V22.3714H10.0548C9.81513 22.3491 9.57588 22.4177 9.38438 22.5635C9.17875 22.771 9.04885 23.0416 9.01557 23.3318H8.88687V22.0967L12.986 22.1101Z" fill="#263238"/>
<path d="M42.4735 17.0387C42.4735 17.0675 40.7447 17.0887 38.6164 17.0887C36.488 17.0887 34.7592 17.0675 34.7592 17.0387C34.7592 17.0099 36.488 16.9888 38.6164 16.9888C40.7447 16.9888 42.4735 17.0118 42.4735 17.0387Z" fill="#263238"/>
<path d="M42.3851 23.0377C42.3851 23.0646 36.0904 23.0877 28.3262 23.0877C20.5619 23.0877 14.2672 23.0646 14.2672 23.0377C14.2672 23.0108 20.56 22.9878 28.3262 22.9878C36.0923 22.9878 42.3851 23.0089 42.3851 23.0377Z" fill="#263238"/>
<path d="M42.3851 24.9704C42.3851 24.9992 36.0904 25.0203 28.3262 25.0203C20.5619 25.0203 14.2672 24.9992 14.2672 24.9704C14.2672 24.9415 20.56 24.9204 28.3262 24.9204C36.0923 24.9204 42.3851 24.9454 42.3851 24.9704Z" fill="#263238"/>
<path d="M42.3851 26.9044C42.3851 26.9332 36.0904 26.9544 28.3262 26.9544C20.5619 26.9544 14.2672 26.9332 14.2672 26.9044C14.2672 26.8756 20.56 26.8545 28.3262 26.8545C36.0923 26.8545 42.3851 26.8775 42.3851 26.9044Z" fill="#263238"/>
<path d="M42.3852 28.839C42.3852 28.8659 34.8304 28.8889 25.5122 28.8889C16.194 28.8889 8.63911 28.8659 8.63911 28.839C8.63911 28.8121 16.192 28.7891 25.5122 28.7891C34.8323 28.7891 42.3852 28.8121 42.3852 28.839Z" fill="#263238"/>
<path d="M42.3852 30.7731C42.3852 30.8 34.8304 30.823 25.5122 30.823C16.194 30.823 8.63911 30.8 8.63911 30.7731C8.63911 30.7462 16.192 30.7231 25.5122 30.7231C34.8323 30.7231 42.3852 30.7443 42.3852 30.7731Z" fill="#263238"/>
<path d="M27.6424 32.7076C27.6424 32.7345 23.3877 32.7576 18.1417 32.7576C12.8958 32.7576 8.63911 32.7345 8.63911 32.7076C8.63911 32.6807 12.892 32.6558 18.1417 32.6558C23.3915 32.6558 27.6424 32.6788 27.6424 32.7076Z" fill="#263238"/>
<path d="M42.3852 34.6398C42.3852 34.6686 34.8304 34.6897 25.5122 34.6897C16.194 34.6897 8.63911 34.6686 8.63911 34.6398C8.63911 34.611 16.192 34.5898 25.5122 34.5898C34.8323 34.5898 42.3852 34.6129 42.3852 34.6398Z" fill="#263238"/>
<path d="M42.3852 36.5744C42.3852 36.6012 34.8304 36.6243 25.5122 36.6243C16.194 36.6243 8.63911 36.6012 8.63911 36.5744C8.63911 36.5475 16.192 36.5244 25.5122 36.5244C34.8323 36.5244 42.3852 36.5475 42.3852 36.5744Z" fill="#263238"/>
<path d="M42.3852 38.5084C42.3852 38.5353 34.8304 38.5584 25.5122 38.5584C16.194 38.5584 8.63911 38.5353 8.63911 38.5084C8.63911 38.4815 16.192 38.4585 25.5122 38.4585C34.8323 38.4585 42.3852 38.4796 42.3852 38.5084Z" fill="#263238"/>
<path d="M42.3852 40.443C42.3852 40.4699 34.8304 40.493 25.5122 40.493C16.194 40.493 8.63911 40.4699 8.63911 40.443C8.63911 40.4161 16.192 40.3931 25.5122 40.3931C34.8323 40.3931 42.3852 40.4142 42.3852 40.443Z" fill="#263238"/>
<path d="M42.3852 42.3751C42.3852 42.4039 34.8304 42.4251 25.5122 42.4251C16.194 42.4251 8.63911 42.4039 8.63911 42.3751C8.63911 42.3463 16.192 42.3252 25.5122 42.3252C34.8323 42.3252 42.3852 42.3482 42.3852 42.3751Z" fill="#263238"/>
<path d="M14.2672 44.3097C14.2672 44.3385 13.0071 44.3597 11.4531 44.3597C9.89907 44.3597 8.64665 44.3462 8.64665 44.3097C8.64665 44.2732 9.90483 44.2598 11.4607 44.2598C13.0167 44.2598 14.2672 44.2828 14.2672 44.3097Z" fill="#263238"/>
<path d="M42.3851 46.2438C42.3851 46.2707 34.8302 46.2937 25.512 46.2937C16.1938 46.2937 8.64665 46.2668 8.64665 46.2438C8.64665 46.2207 16.1996 46.1938 25.5197 46.1938C34.8399 46.1938 42.3851 46.2169 42.3851 46.2438Z" fill="#263238"/>
<path d="M42.3851 48.1881C42.3851 48.215 34.8302 48.2381 25.512 48.2381C16.1938 48.2381 8.64665 48.2054 8.64665 48.1881C8.64665 48.1708 16.1996 48.1382 25.5197 48.1382C34.8399 48.1382 42.3851 48.1497 42.3851 48.1881Z" fill="#263238"/>
<path d="M42.3851 50.1085C42.3851 50.1374 34.8302 50.1585 25.512 50.1585C16.1938 50.1585 8.64665 50.1393 8.64665 50.1085C8.64665 50.0778 16.1996 50.0586 25.5197 50.0586C34.8399 50.0586 42.3851 50.0836 42.3851 50.1085Z" fill="#263238"/>
<path d="M34.5442 52.0451C34.5442 52.0739 28.745 52.095 21.5916 52.095C14.4383 52.095 8.63911 52.0739 8.63911 52.0451C8.63911 52.0162 14.4363 51.9951 21.5916 51.9951C28.7469 51.9951 34.5442 52.0182 34.5442 52.0451Z" fill="#263238"/>
<path d="M42.3852 53.9791C42.3852 54.006 34.8304 54.0291 25.5122 54.0291C16.194 54.0291 8.63911 54.006 8.63911 53.9791C8.63911 53.9522 16.192 53.9292 25.5122 53.9292C34.8323 53.9292 42.3852 53.9503 42.3852 53.9791Z" fill="#263238"/>
<path d="M42.3852 55.9137C42.3852 55.9406 34.8304 55.9637 25.5122 55.9637C16.194 55.9637 8.63911 55.9406 8.63911 55.9137C8.63911 55.8868 16.192 55.8638 25.5122 55.8638C34.8323 55.8638 42.3852 55.8849 42.3852 55.9137Z" fill="#263238"/>
<path d="M37.8441 57.8483C37.8441 57.8751 31.3131 57.8982 23.2454 57.8982C15.1777 57.8982 8.64665 57.8751 8.64665 57.8483C8.64665 57.8214 15.1777 57.7964 23.2454 57.7964C31.3131 57.7964 37.8441 57.8194 37.8441 57.8483Z" fill="#263238"/>
<path d="M42.3851 59.7804C42.3851 59.8092 34.8302 59.8304 25.512 59.8304C16.1938 59.8304 8.64665 59.8092 8.64665 59.7804C8.64665 59.7516 16.1996 59.7305 25.5197 59.7305C34.8399 59.7305 42.3851 59.7535 42.3851 59.7804Z" fill="#263238"/>
<path d="M42.3852 63.6491C42.3852 63.676 34.8304 63.699 25.5122 63.699C16.194 63.699 8.63911 63.676 8.63911 63.6491C8.63911 63.6222 16.192 63.5991 25.5122 63.5991C34.8323 63.5991 42.3852 63.6202 42.3852 63.6491Z" fill="#263238"/>
<path d="M42.3851 65.5836C42.3851 65.6105 34.8302 65.6336 25.512 65.6336C16.1938 65.6336 8.64665 65.6105 8.64665 65.5836C8.64665 65.5567 16.1996 65.5337 25.5197 65.5337C34.8399 65.5337 42.3851 65.5548 42.3851 65.5836Z" fill="#263238"/>
<path d="M42.3852 67.5158C42.3852 67.5446 34.8304 67.5657 25.5122 67.5657C16.194 67.5657 8.63911 67.5446 8.63911 67.5158C8.63911 67.487 16.192 67.4658 25.5122 67.4658C34.8323 67.4658 42.3852 67.4889 42.3852 67.5158Z" fill="#263238"/>
<path d="M26.5686 73.2226L26.461 73.5165H25.5621V73.4743C25.7684 73.297 25.9558 73.0987 26.121 72.8826C26.2163 72.7628 26.2727 72.6167 26.2824 72.4639C26.2842 72.42 26.2773 72.3762 26.2621 72.335C26.2469 72.2938 26.2238 72.256 26.194 72.2238C26.1669 72.1943 26.1339 72.1709 26.0972 72.1551C26.0605 72.1392 26.0208 72.1312 25.9808 72.1316C25.9082 72.1304 25.8373 72.1534 25.7791 72.1969C25.7161 72.2456 25.6698 72.3127 25.6466 72.389H25.6062C25.6148 72.2683 25.6658 72.1547 25.7503 72.0682C25.7888 72.0312 25.8342 72.0022 25.8841 71.9831C25.9339 71.964 25.987 71.955 26.0404 71.9568C26.0975 71.9551 26.1544 71.9648 26.2078 71.9853C26.2612 72.0057 26.3101 72.0365 26.3515 72.0758C26.3904 72.1119 26.4214 72.1556 26.4425 72.2042C26.4637 72.2528 26.4746 72.3052 26.4745 72.3582C26.4741 72.4381 26.4557 72.5169 26.4207 72.5887C26.3522 72.7303 26.2614 72.86 26.1518 72.9729C25.9597 73.1784 25.8483 73.3014 25.8002 73.3436H26.1998C26.2569 73.3448 26.3141 73.3416 26.3708 73.334C26.4024 73.3279 26.4324 73.3155 26.4591 73.2975C26.4867 73.2762 26.5096 73.2494 26.5263 73.2188L26.5686 73.2226Z" fill="#263238"/>
<path d="M26.7472 72.7619C26.744 72.6084 26.7708 72.4557 26.8259 72.3124C26.8686 72.2014 26.941 72.1044 27.0353 72.032C27.0957 71.9862 27.169 71.9606 27.2447 71.959C27.3076 71.9617 27.369 71.9793 27.4237 72.0104C27.4785 72.0414 27.5251 72.085 27.5597 72.1376C27.6846 72.3124 27.7463 72.5244 27.7345 72.7389C27.7389 72.8929 27.7128 73.0463 27.6577 73.1903C27.6213 73.2967 27.5545 73.3902 27.4656 73.4592C27.4001 73.5118 27.3191 73.5415 27.2351 73.5437C27.1567 73.5386 27.0812 73.5118 27.0171 73.4664C26.953 73.421 26.9028 73.3586 26.872 73.2863C26.7859 73.1252 26.7428 72.9446 26.7472 72.7619ZM26.9681 72.7907C26.9626 72.9657 26.9893 73.1402 27.0468 73.3055C27.0891 73.4169 27.1531 73.4726 27.2389 73.4726C27.2864 73.471 27.3316 73.4518 27.3657 73.4189C27.4178 73.3668 27.4521 73.2995 27.4637 73.2268C27.5034 73.0471 27.5208 72.8632 27.5155 72.6793C27.5194 72.5327 27.5012 72.3864 27.4618 72.2452C27.4459 72.1727 27.4099 72.1061 27.358 72.0531C27.3396 72.039 27.3186 72.0286 27.2962 72.0226C27.2738 72.0166 27.2504 72.0151 27.2274 72.0181C27.2044 72.0211 27.1822 72.0287 27.1621 72.0403C27.142 72.0519 27.1244 72.0673 27.1102 72.0858C27.0469 72.171 27.0084 72.272 26.9988 72.3777C26.9784 72.5145 26.9681 72.6525 26.9681 72.7907Z" fill="#263238"/>
<path d="M5.57323 78.3322C4.14409 75.8946 1.12446 75.8677 0.133284 77.8366V6.04733C0.126078 5.40268 0.353027 4.77732 0.772002 4.28733C1.19098 3.79735 1.77351 3.47604 2.41145 3.38306C3.25088 3.27549 4.01347 3.59627 5.31199 4.3435L5.57323 78.3322Z" fill="white"/>
<path d="M5.57334 78.3322C5.57334 77.804 5.43503 45.7367 5.26023 4.3474L5.28521 4.38966C4.8897 4.15595 4.48259 3.94245 4.06544 3.75001C3.64587 3.54435 3.18777 3.42917 2.72082 3.41193C2.24326 3.41505 1.77662 3.55504 1.3762 3.81532C0.974233 4.07905 0.652064 4.44772 0.444574 4.88141C0.337511 5.10843 0.26128 5.34875 0.217909 5.59598C0.182846 5.84534 0.169989 6.09733 0.179491 6.34897C0.179491 6.8612 0.179491 7.36831 0.179491 7.87031V16.8447C0.179491 20.7671 0.179491 24.5878 0.179491 28.3066C0.179491 35.7289 0.179491 42.6883 0.179491 49.008C0.179491 61.6474 0.162203 71.7244 0.158361 77.8367L0.119944 77.827C0.351857 77.3641 0.720744 76.9838 1.17643 76.7379C1.57582 76.5309 2.01933 76.4235 2.46919 76.4248C2.66936 76.4228 2.8693 76.4389 3.06658 76.4728C3.16071 76.4901 3.25867 76.5189 3.34127 76.5401C3.42861 76.5603 3.51407 76.588 3.59675 76.6227C3.75425 76.6776 3.90659 76.7464 4.052 76.8282L4.25561 76.9415C4.31708 76.9819 4.37663 77.026 4.43425 77.0683C4.54568 77.1407 4.64989 77.2237 4.74544 77.3161C4.83572 77.4025 4.92408 77.4774 4.99707 77.5562C5.11746 77.6892 5.23094 77.8284 5.33707 77.973C5.48882 78.2074 5.55797 78.3111 5.57526 78.3399L5.32939 77.9807C5.24871 77.8578 5.12193 77.731 4.98555 77.5658C4.91255 77.489 4.82419 77.4141 4.73391 77.3295C4.63625 77.2394 4.53155 77.1572 4.42081 77.0837C4.36318 77.0433 4.30555 76.9992 4.24409 76.9588L4.04047 76.8493C3.89567 76.7682 3.74397 76.7001 3.58714 76.6457C3.50512 76.612 3.42027 76.5856 3.33358 76.5669C3.24522 76.5458 3.15494 76.5189 3.06274 76.4997C2.86651 76.4681 2.66793 76.4534 2.46919 76.4555C2.02376 76.458 1.58553 76.568 1.1918 76.7763C0.743198 77.0191 0.380828 77.3949 0.15452 77.852L0.116101 77.9289V77.8443C0.116101 71.7321 0.104577 61.6551 0.0949727 49.0157C0.0949727 42.696 0.0949727 35.7366 0.0949727 28.3143C0.0949727 24.6006 0.0949727 20.7799 0.0949727 16.8524V10.8976C0.0949727 9.89492 0.0949727 8.88709 0.0949727 7.87415V6.34897C0.0862668 6.0921 0.100408 5.83497 0.137231 5.58061C0.181667 5.32405 0.260493 5.07465 0.371579 4.83915C0.585323 4.38997 0.917349 4.00748 1.33202 3.73272C1.74684 3.46326 2.23003 3.31797 2.72466 3.31396C3.20599 3.33136 3.67838 3.44913 4.11154 3.65972C4.54182 3.85181 4.94329 4.0804 5.33899 4.30514L5.36396 4.32051V4.34932C5.48114 45.7367 5.57334 77.804 5.57334 78.3322Z" fill="#263238"/>
<path d="M44.454 44.4055C44.4393 44.4056 44.4248 44.4022 44.4118 44.3955C44.3987 44.3888 44.3875 44.379 44.3791 44.367C44.3636 44.3469 44.3567 44.3214 44.3599 44.2962C44.3632 44.271 44.3763 44.2481 44.3963 44.2326L45.4874 43.4066L44.404 42.7189C44.3931 42.7124 44.3836 42.7038 44.3761 42.6935C44.3686 42.6833 44.3632 42.6716 44.3603 42.6592C44.3575 42.6468 44.3571 42.634 44.3594 42.6215C44.3616 42.609 44.3663 42.597 44.3733 42.5864C44.38 42.5756 44.3887 42.5663 44.399 42.559C44.4092 42.5516 44.4209 42.5464 44.4332 42.5435C44.4455 42.5406 44.4583 42.5402 44.4707 42.5423C44.4832 42.5444 44.4951 42.5489 44.5058 42.5556L45.7064 43.324C45.7197 43.3319 45.7308 43.3432 45.7386 43.3566C45.7463 43.3701 45.7504 43.3853 45.7506 43.4008C45.7516 43.4162 45.7488 43.4317 45.7424 43.4457C45.736 43.4598 45.7263 43.4721 45.7141 43.4815L44.5135 44.392C44.4957 44.4028 44.4748 44.4076 44.454 44.4055Z" fill="#E0E0E0"/>
<g opacity="0.3">
<path d="M36.6667 4.30127V13.1604C36.667 13.2012 36.6793 13.2411 36.7022 13.2749C36.725 13.3088 36.7573 13.3351 36.795 13.3507C36.8327 13.3663 36.8742 13.3704 36.9143 13.3625C36.9543 13.3546 36.9912 13.3351 37.0202 13.3064L39.1543 11.1723C39.1935 11.1337 39.2463 11.112 39.3012 11.112C39.3562 11.112 39.409 11.1337 39.4482 11.1723L41.5804 13.3064C41.6093 13.3358 41.6463 13.3559 41.6867 13.3642C41.7271 13.3724 41.769 13.3685 41.8071 13.3528C41.8452 13.3371 41.8778 13.3105 41.9008 13.2762C41.9237 13.2419 41.9358 13.2016 41.9357 13.1604V4.30127H36.6667Z" fill="black"/>
</g>
<path d="M36.2173 4.30127V12.3421C36.2172 12.3833 36.2293 12.4236 36.2522 12.4579C36.2751 12.4922 36.3078 12.5188 36.3459 12.5345C36.384 12.5502 36.4259 12.5541 36.4663 12.5459C36.5067 12.5376 36.5437 12.5175 36.5726 12.4881L38.7067 10.3559C38.7257 10.3364 38.7484 10.3209 38.7735 10.3103C38.7985 10.2997 38.8255 10.2942 38.8527 10.2942C38.8799 10.2942 38.9069 10.2997 38.9319 10.3103C38.957 10.3209 38.9797 10.3364 38.9987 10.3559L41.1328 12.4881C41.1617 12.5175 41.1987 12.5376 41.2391 12.5459C41.2795 12.5541 41.3214 12.5502 41.3595 12.5345C41.3977 12.5188 41.4303 12.4922 41.4532 12.4579C41.4761 12.4236 41.4883 12.3833 41.4882 12.3421V4.30127H36.2173Z" fill="#FF725E"/>
</svg>
