<svg xmlns="http://www.w3.org/2000/svg" width="70" height="78" viewBox="0 0 70 78" fill="none">
    <path
        d="M31.2201 1.33591C33.7103 -0.108636 36.7835 -0.108636 39.2737 1.33591L52.6013 9.06708L65.9605 16.7435C68.4566 18.1778 69.9932 20.8393 69.9873 23.7182L69.9557 39.1258L69.9873 54.5334C69.9932 57.4123 68.4566 60.0737 65.9605 61.5081L52.6013 69.1845L39.2737 76.9157C36.7835 78.3602 33.7103 78.3602 31.2201 76.9157L17.8925 69.1845L4.5333 61.5081C2.03717 60.0737 0.500572 57.4123 0.506476 54.5334L0.538074 39.1258L0.506476 23.7182C0.500572 20.8393 2.03717 18.1778 4.5333 16.7435L17.8925 9.06708L31.2201 1.33591Z"
        fill="#FFD54B" />
    <svg xmlns="http://www.w3.org/2000/svg" width="41" height="41" viewBox="0 0 41 41" fill="none" x="14.5" y="18.5">
        <g clip-path="url(#clip0_2420_1006)">
            <path
                d="M20.2464 10.0942L26.934 20.1257L35.2936 13.4381L31.9497 30.1571H8.54303L5.19922 13.4381L13.5588 20.1257L20.2464 10.0942Z"
                fill="#413838" stroke="#413838" stroke-width="3.00943" stroke-linecap="round" stroke-linejoin="round" />
        </g>
        <defs>
            <clipPath id="clip0_2420_1006">
                <rect width="40.1258" height="40.1258" fill="white" transform="translate(0.183594 0.0629883)" />
            </clipPath>
        </defs>
    </svg>
</svg>