<svg width="400" height="434" viewBox="0 0 400 434" fill="none" xmlns="http://www.w3.org/2000/svg">
<ellipse cx="248.159" cy="394.429" rx="22.357" ry="23.9351" fill="#F6F9FF"/>
<path d="M257.143 410.556C283.664 413.254 303.971 375.349 310.81 356.059C295.032 352.864 260.015 352.725 246.163 377.728C232.311 402.731 247.711 410.031 257.143 410.556Z" fill="#E7E7FF"/>
<path d="M197.863 331.078C226.872 324.798 290.215 306.515 312.024 284.555C305.845 314.94 210.928 345.038 197.863 331.078Z" fill="#F1D4EE"/>
<ellipse cx="30.6496" cy="37.598" rx="30.6496" ry="37.598" transform="matrix(0.922862 -0.389538 0.371144 0.926815 26.8076 126.591)" fill="white"/>
<ellipse cx="11.4702" cy="14.0706" rx="11.4702" ry="14.0706" transform="matrix(0.922862 -0.389538 0.371144 0.926815 46.6987 134.425)" fill="#FFF1C6"/>
<path d="M264.217 101.907C266.915 122.529 282.261 137.433 298.493 135.194C303.015 134.571 325.695 114.423 322.997 93.7998C320.299 73.1769 304.953 58.2735 288.721 60.5121C272.489 62.7507 261.518 81.2836 264.217 101.907Z" fill="#E5EDFF"/>
<ellipse cx="11.4702" cy="14.0706" rx="11.4702" ry="14.0706" transform="matrix(-0.988931 0.136389 0.129949 0.993167 306.543 73.2)" fill="#E9DEBD"/>
<g filter="url(#filter0_i_98_57)">
<path fill-rule="evenodd" clip-rule="evenodd" d="M159.961 71.0919C172.809 62.5422 190.145 48.5948 203.887 30.4669C207.278 27.156 215.063 23.0377 219.068 33.052C222.466 41.5465 221.38 52.6457 216.923 63.4381C295.226 65.6458 340.697 125.602 355.711 183.13C373.959 253.049 310.65 301.062 227.812 323.85C144.974 346.639 65.0766 334.053 46.8285 264.134C28.6852 194.617 58.2162 96.9865 159.961 71.0919Z" fill="white"/>
</g>
<path d="M300.004 297.313C277.18 318.8 216.023 332.802 193.968 334.78C194.739 356.829 204.253 410.419 276.117 387.291C332.809 369.046 311.201 317.03 300.004 297.313Z" fill="#0C242E"/>
<path d="M271.878 324.751L275.807 312.469C257.968 320.872 229.391 328.223 218.441 330.705L226.995 335.664C227.352 335.871 227.775 335.934 228.176 335.839L270.708 325.832C271.261 325.702 271.705 325.292 271.878 324.751Z" fill="white"/>
<path d="M94.5087 316.524C122.933 307.624 157.079 327.62 181.725 331.18L189.462 365.784C164.631 370.986 156.326 378.248 112.913 372.686C62.1314 366.18 81.2774 320.667 94.5087 316.524Z" fill="url(#paint0_linear_98_57)"/>
<path d="M100.119 372.94C99.1298 370.03 108.619 315.924 110.548 313.107C112.269 311.073 116.211 312.107 116.669 314.488C119.577 329.603 110.548 371.833 107.804 374.023C104.872 376.363 100.908 374.543 100.119 372.94Z" fill="#F1D4EE"/>
<ellipse cx="43.9822" cy="59.3686" rx="43.9822" ry="59.3686" transform="matrix(0.923133 -0.386713 0.369025 0.92853 128.792 321.646)" fill="white"/>
<ellipse cx="30.4367" cy="41.0844" rx="30.4367" ry="41.0844" transform="matrix(0.923133 -0.386713 0.369025 0.92853 150.892 337.639)" fill="#D7E5FF"/>
<path d="M289.085 305.966L289.964 243.933L363.382 253.467L312.574 313.842C304.272 320.525 289.634 313.743 289.085 305.966Z" fill="url(#paint1_linear_98_57)"/>
<ellipse cx="48.4564" cy="49.6569" rx="48.4564" ry="49.6569" transform="matrix(0.981356 -0.192197 0.182678 0.983173 278.551 197.551)" fill="#F1D4EE"/>
<g filter="url(#filter1_i_98_57)">
<g clip-path="url(#clip0_98_57)">
<circle cx="16.1442" cy="16.1442" r="16.1442" transform="matrix(0.981356 -0.192197 0.182678 0.983173 272.266 180.673)" fill="white"/>
</g>
</g>
<path d="M248.222 202.566L248.191 202.451L248.079 202.491L152.037 236.94L151.938 236.975L151.969 237.076C157.327 254.327 167.74 266.211 181.024 272.154C194.307 278.097 210.446 278.094 227.245 271.595C241.62 266.034 248.221 253.739 250.55 240.363C252.879 226.99 250.94 212.52 248.222 202.566Z" fill="#F44D3D" stroke="#091120" stroke-width="0.220732"/>
<path fill-rule="evenodd" clip-rule="evenodd" d="M248.169 248.619C240.201 246.301 228.267 246.753 215.651 250.434C198.654 255.394 185.713 264.672 183.083 272.975C195.898 277.962 211.157 277.626 227.014 271.492C238.309 267.122 244.792 258.581 248.169 248.619Z" fill="#FC6D5C"/>
<path d="M222.507 211.771L172.251 229.466C176.919 231.778 189.893 234.881 204.451 228.803C219.008 222.725 222.769 215.033 222.507 211.771Z" fill="white"/>
<ellipse cx="32.7719" cy="33.4592" rx="32.7719" ry="33.4592" transform="matrix(0.942955 -0.332921 0.317612 0.948221 89.1978 171.256)" fill="#1D1D1D"/>
<ellipse cx="32.7719" cy="33.4592" rx="32.7719" ry="33.4592" transform="matrix(0.942955 -0.332921 0.317612 0.948221 186.361 135.881)" fill="#1D1D1D"/>
<ellipse cx="136.032" cy="202.595" rx="20.2776" ry="20.8184" fill="#3E3E3E"/>
<ellipse cx="231.205" cy="163.403" rx="20.2776" ry="20.8184" fill="#3E3E3E"/>
<ellipse cx="36.6304" cy="13.4022" rx="36.6304" ry="13.4022" transform="matrix(0.909104 -0.416569 0.398678 0.917091 205.996 187.19)" fill="white"/>
<ellipse cx="36.5873" cy="13.4174" rx="36.5873" ry="13.4174" transform="matrix(0.933781 -0.357844 0.341686 0.939814 103.074 225.519)" fill="white"/>
<ellipse cx="140.168" cy="160.441" rx="5.61469" ry="5.76444" fill="white"/>
<ellipse cx="234.43" cy="123.495" rx="6.53972" ry="6.71415" fill="white"/>
<rect width="23.1828" height="86.7444" transform="matrix(0.98547 0.0918785 -0.0889923 1.00611 105.096 147.578)" fill="#B8D4FF" fill-opacity="0.3"/>
<rect width="15.5449" height="84.6763" transform="matrix(0.98547 0.0918785 -0.0889923 1.00611 251.896 107.109)" fill="#B8D4FF" fill-opacity="0.3"/>
<g filter="url(#filter2_i_98_57)">
<line y1="-1.32439" x2="27.7795" y2="-1.32439" transform="matrix(0.910273 -0.40955 0.393279 0.921358 167.136 177.524)" stroke="#1D48B5" stroke-width="2.64879"/>
</g>
<g filter="url(#filter3_di_98_57)">
<path d="M280.036 122.881C293.105 147.701 284.091 178.666 259.957 192.061C235.823 205.456 205.651 196.239 192.582 171.419C179.514 146.6 188.528 115.635 212.662 102.24C236.796 88.8452 266.968 98.0621 280.036 122.881Z" stroke="#1A44AE" stroke-width="2.64879" shape-rendering="crispEdges"/>
</g>
<g filter="url(#filter4_di_98_57)">
<path d="M166.031 168.69C178.729 192.804 169.97 222.89 146.522 235.904C123.074 248.918 93.759 239.963 81.0614 215.848C68.3638 191.734 77.1223 161.648 100.57 148.634C124.018 135.62 153.333 144.575 166.031 168.69Z" stroke="#1A44AE" stroke-width="2.64879" shape-rendering="crispEdges"/>
</g>
<defs>
<filter id="filter0_i_98_57" x="36.51" y="21.4488" width="322.356" height="312.77" filterUnits="userSpaceOnUse" color-interpolation-filters="sRGB">
<feFlood flood-opacity="0" result="BackgroundImageFix"/>
<feBlend mode="normal" in="SourceGraphic" in2="BackgroundImageFix" result="shape"/>
<feColorMatrix in="SourceAlpha" type="matrix" values="0 0 0 0 0 0 0 0 0 0 0 0 0 0 0 0 0 0 127 0" result="hardAlpha"/>
<feOffset dx="-5.29757" dy="-5.29757"/>
<feGaussianBlur stdDeviation="4.41464"/>
<feComposite in2="hardAlpha" operator="arithmetic" k2="-1" k3="1"/>
<feColorMatrix type="matrix" values="0 0 0 0 0.803271 0 0 0 0 0.868847 0 0 0 0 1 0 0 0 1 0"/>
<feBlend mode="normal" in2="shape" result="effect1_innerShadow_98_57"/>
</filter>
<filter id="filter1_i_98_57" x="272.266" y="156.132" width="129.5" height="134.672" filterUnits="userSpaceOnUse" color-interpolation-filters="sRGB">
<feFlood flood-opacity="0" result="BackgroundImageFix"/>
<feBlend mode="normal" in="SourceGraphic" in2="BackgroundImageFix" result="shape"/>
<feColorMatrix in="SourceAlpha" type="matrix" values="0 0 0 0 0 0 0 0 0 0 0 0 0 0 0 0 0 0 127 0" result="hardAlpha"/>
<feOffset dx="1.76586" dy="-3.53171"/>
<feGaussianBlur stdDeviation="2.64879"/>
<feComposite in2="hardAlpha" operator="arithmetic" k2="-1" k3="1"/>
<feColorMatrix type="matrix" values="0 0 0 0 0.829948 0 0 0 0 0.888252 0 0 0 0 1 0 0 0 1 0"/>
<feBlend mode="normal" in2="shape" result="effect1_innerShadow_98_57"/>
</filter>
<filter id="filter2_i_98_57" x="166.094" y="163.706" width="26.3286" height="14.7006" filterUnits="userSpaceOnUse" color-interpolation-filters="sRGB">
<feFlood flood-opacity="0" result="BackgroundImageFix"/>
<feBlend mode="normal" in="SourceGraphic" in2="BackgroundImageFix" result="shape"/>
<feColorMatrix in="SourceAlpha" type="matrix" values="0 0 0 0 0 0 0 0 0 0 0 0 0 0 0 0 0 0 127 0" result="hardAlpha"/>
<feOffset dy="0.882929"/>
<feGaussianBlur stdDeviation="0.441464"/>
<feComposite in2="hardAlpha" operator="arithmetic" k2="-1" k3="1"/>
<feColorMatrix type="matrix" values="0 0 0 0 0.133333 0 0 0 0 0.309804 0 0 0 0 0.74902 0 0 0 1 0"/>
<feBlend mode="normal" in2="shape" result="effect1_innerShadow_98_57"/>
</filter>
<filter id="filter3_di_98_57" x="184.392" y="92.9895" width="109.131" height="111.853" filterUnits="userSpaceOnUse" color-interpolation-filters="sRGB">
<feFlood flood-opacity="0" result="BackgroundImageFix"/>
<feColorMatrix in="SourceAlpha" type="matrix" values="0 0 0 0 0 0 0 0 0 0 0 0 0 0 0 0 0 0 127 0" result="hardAlpha"/>
<feOffset dx="2.64879" dy="1.76586"/>
<feGaussianBlur stdDeviation="1.76586"/>
<feComposite in2="hardAlpha" operator="out"/>
<feColorMatrix type="matrix" values="0 0 0 0 0 0 0 0 0 0 0 0 0 0 0 0 0 0 0.15 0"/>
<feBlend mode="normal" in2="BackgroundImageFix" result="effect1_dropShadow_98_57"/>
<feBlend mode="normal" in="SourceGraphic" in2="effect1_dropShadow_98_57" result="shape"/>
<feColorMatrix in="SourceAlpha" type="matrix" values="0 0 0 0 0 0 0 0 0 0 0 0 0 0 0 0 0 0 127 0" result="hardAlpha"/>
<feOffset dy="1.76586"/>
<feGaussianBlur stdDeviation="0.882929"/>
<feComposite in2="hardAlpha" operator="arithmetic" k2="-1" k3="1"/>
<feColorMatrix type="matrix" values="0 0 0 0 0.244065 0 0 0 0 0.451742 0 0 0 0 0.975879 0 0 0 1 0"/>
<feBlend mode="normal" in2="shape" result="effect2_innerShadow_98_57"/>
</filter>
<filter id="filter4_di_98_57" x="73.0419" y="139.558" width="106.306" height="108.953" filterUnits="userSpaceOnUse" color-interpolation-filters="sRGB">
<feFlood flood-opacity="0" result="BackgroundImageFix"/>
<feColorMatrix in="SourceAlpha" type="matrix" values="0 0 0 0 0 0 0 0 0 0 0 0 0 0 0 0 0 0 127 0" result="hardAlpha"/>
<feOffset dx="2.64879" dy="1.76586"/>
<feGaussianBlur stdDeviation="1.76586"/>
<feComposite in2="hardAlpha" operator="out"/>
<feColorMatrix type="matrix" values="0 0 0 0 0 0 0 0 0 0 0 0 0 0 0 0 0 0 0.15 0"/>
<feBlend mode="normal" in2="BackgroundImageFix" result="effect1_dropShadow_98_57"/>
<feBlend mode="normal" in="SourceGraphic" in2="effect1_dropShadow_98_57" result="shape"/>
<feColorMatrix in="SourceAlpha" type="matrix" values="0 0 0 0 0 0 0 0 0 0 0 0 0 0 0 0 0 0 127 0" result="hardAlpha"/>
<feOffset dy="1.76586"/>
<feGaussianBlur stdDeviation="0.882929"/>
<feComposite in2="hardAlpha" operator="arithmetic" k2="-1" k3="1"/>
<feColorMatrix type="matrix" values="0 0 0 0 0.244065 0 0 0 0 0.451742 0 0 0 0 0.975879 0 0 0 1 0"/>
<feBlend mode="normal" in2="shape" result="effect2_innerShadow_98_57"/>
</filter>
<linearGradient id="paint0_linear_98_57" x1="128.335" y1="328.704" x2="140.542" y2="376.968" gradientUnits="userSpaceOnUse">
<stop stop-color="white"/>
<stop stop-color="white"/>
<stop offset="1" stop-color="#DBE7FF"/>
</linearGradient>
<linearGradient id="paint1_linear_98_57" x1="318.524" y1="238.34" x2="296.855" y2="314.689" gradientUnits="userSpaceOnUse">
<stop stop-color="#F3F7FF"/>
<stop offset="0.978213" stop-color="#D5E3FF"/>
</linearGradient>
<clipPath id="clip0_98_57">
<rect width="109.309" height="112.017" rx="44.1464" transform="matrix(0.981356 -0.192197 0.182678 0.983173 272.266 180.673)" fill="white"/>
</clipPath>
</defs>
</svg>
