<svg width="177" height="106" viewBox="0 0 177 106" fill="none" xmlns="http://www.w3.org/2000/svg">
<path d="M87.6118 110.531C97.414 108.465 118.818 102.447 126.188 95.2195C124.1 105.22 92.0268 115.126 87.6118 110.531Z" fill="#FFC100"/>
<ellipse cx="44.0875" cy="50.7655" rx="10.334" ry="12.4004" transform="rotate(-22.3491 44.0875 50.7655)" fill="white"/>
<ellipse cx="41.8771" cy="48.6265" rx="3.86739" ry="4.64068" transform="rotate(-22.3491 41.8771 48.6265)" fill="#FFF1C6"/>
<path d="M110.037 35.1009C110.949 41.8885 116.134 46.7936 121.619 46.0568C123.147 45.8516 130.811 39.2203 129.899 32.4328C128.987 25.6452 123.802 20.7401 118.317 21.4769C112.832 22.2137 109.125 28.3134 110.037 35.1009Z" fill="#E5EDFF"/>
<ellipse cx="3.86739" cy="4.64068" rx="3.86739" ry="4.64068" transform="matrix(-0.991098 0.133137 0.133137 0.991098 124.338 25.6536)" fill="#E9DEBD"/>
<g filter="url(#filter0_i_101_196)">
<path fill-rule="evenodd" clip-rule="evenodd" d="M74.8062 24.9607C79.1478 22.1468 85.0059 17.5562 89.6494 11.5895C90.7955 10.4998 93.4259 9.14439 94.7795 12.4404C95.9276 15.2361 95.5605 18.8892 94.0543 22.4413C120.514 23.1677 135.879 42.9011 140.952 61.8351C147.118 84.8474 125.726 100.65 97.7344 108.15C69.7429 115.65 42.7452 111.508 36.5791 88.496C30.4484 65.616 40.4268 33.4837 74.8062 24.9607Z" fill="white"/>
</g>
<path d="M104.715 68.2072L104.679 68.0778L104.552 68.1221L72.0995 79.4601L71.9837 79.5006L72.0209 79.6175C73.8382 85.317 77.3735 89.2502 81.8882 91.2176C86.4014 93.1844 91.8791 93.1806 97.5727 91.0352C102.468 89.1904 104.713 85.1102 105.504 80.6878C106.294 76.2688 105.636 71.4918 104.715 68.2072Z" fill="#F44D3D" stroke="#CDDEFF" stroke-width="0.252266"/>
<path fill-rule="evenodd" clip-rule="evenodd" d="M104.61 83.3899C101.917 82.627 97.8849 82.7757 93.622 83.9875C87.8788 85.62 83.506 88.6735 82.6172 91.4061C86.9473 93.0475 92.1035 92.9368 97.4616 90.9178C101.278 89.4797 103.469 86.6688 104.61 83.3899Z" fill="#FC6D5C"/>
<path d="M95.9397 71.2605L78.958 77.0844C80.5352 77.8452 84.9193 78.8665 89.8384 76.8661C94.7575 74.8656 96.0281 72.334 95.9397 71.2605Z" fill="white"/>
<circle cx="64.9247" cy="64.7779" r="11.0423" transform="rotate(-18.9775 64.9247 64.7779)" fill="#1D1D1D"/>
<circle cx="97.7577" cy="53.1351" r="11.0423" transform="rotate(-18.9775 97.7577 53.1351)" fill="#1D1D1D"/>
<circle cx="66.7172" cy="68.2428" r="6.85192" fill="#3E3E3E"/>
<circle cx="98.8768" cy="55.3426" r="6.85192" fill="#3E3E3E"/>
<ellipse cx="103.416" cy="62.1943" rx="12.3224" ry="4.42994" transform="rotate(-24.0519 103.416 62.1943)" fill="white"/>
<ellipse cx="68.6741" cy="75.629" rx="12.3224" ry="4.42994" transform="rotate(-20.4688 68.6741 75.629)" fill="white"/>
<circle cx="68.115" cy="54.3677" r="1.89724" fill="white"/>
<circle cx="99.9686" cy="42.2081" r="2.20981" fill="white"/>
<rect x="56.2681" y="50.1353" width="7.75154" height="28.8426" transform="rotate(5.18885 56.2681 50.1353)" fill="#B8D4FF" fill-opacity="0.3"/>
<rect x="105.871" y="36.8145" width="5.1977" height="28.155" transform="rotate(5.18885 105.871 36.8145)" fill="#B8D4FF" fill-opacity="0.3"/>
<g filter="url(#filter1_i_101_196)">
<line x1="76.6259" y1="58.6051" x2="85.1705" y2="54.8606" stroke="#1D48B5" stroke-width="3.0272"/>
</g>
<g filter="url(#filter2_di_101_196)">
<circle cx="100.607" cy="49.9932" r="15.7277" transform="rotate(-28.3952 100.607 49.9932)" stroke="#1A44AE" stroke-width="3.0272" shape-rendering="crispEdges"/>
</g>
<g filter="url(#filter3_di_101_196)">
<circle cx="62.5025" cy="64.8436" r="15.2505" transform="rotate(-28.3952 62.5025 64.8436)" stroke="#1A44AE" stroke-width="3.0272" shape-rendering="crispEdges"/>
</g>
<path d="M122.128 99.4182C114.415 106.49 93.7496 111.099 86.2974 111.75C86.5577 119.007 89.7726 136.644 114.056 129.032C133.212 123.028 125.911 105.908 122.128 99.4182Z" fill="#5BCBFB"/>
<path d="M112.855 107.745L113.952 104.406C107.924 107.172 98.2674 109.592 94.5674 110.409L97.0221 111.795C97.4232 112.021 97.8944 112.09 98.3434 111.987L111.512 108.969C112.144 108.824 112.653 108.36 112.855 107.745Z" fill="white"/>
<path d="M52.6914 105.74C62.296 102.81 73.8344 109.392 82.1622 110.563L84.7768 121.952C76.3861 123.665 73.5798 126.055 58.9104 124.224C41.7509 122.083 48.2204 107.103 52.6914 105.74Z" fill="url(#paint0_linear_101_196)"/>
<path d="M54.5834 124.309C54.2492 123.351 57.4556 105.543 58.1073 104.616C58.689 103.947 60.021 104.287 60.1757 105.071C61.1586 110.046 58.1073 123.944 57.1803 124.665C56.1896 125.435 54.85 124.836 54.5834 124.309Z" fill="#FFC100"/>
<ellipse cx="85.395" cy="119.971" rx="14.8176" ry="19.5955" transform="rotate(-22.1969 85.395 119.971)" fill="white"/>
<ellipse cx="86.3604" cy="121.37" rx="10.2541" ry="13.5606" transform="rotate(-22.1969 86.3604 121.37)" fill="#D7E5FF"/>
<path d="M118.433 102.265L118.731 81.8478L143.539 84.9857L126.37 104.857C123.565 107.056 118.619 104.824 118.433 102.265Z" fill="url(#paint1_linear_101_196)"/>
<circle cx="134.011" cy="79.5852" r="16.3582" transform="rotate(-10.8 134.011 79.5852)" fill="#FFC100"/>
<g filter="url(#filter4_i_101_196)">
<g clip-path="url(#clip0_101_196)">
<circle cx="134.331" cy="75.6937" r="18.4505" transform="rotate(-10.8 134.331 75.6937)" fill="white"/>
</g>
</g>
<defs>
<filter id="filter0_i_101_196" x="28.8279" y="4.3106" width="113.191" height="107.252" filterUnits="userSpaceOnUse" color-interpolation-filters="sRGB">
<feFlood flood-opacity="0" result="BackgroundImageFix"/>
<feBlend mode="normal" in="SourceGraphic" in2="BackgroundImageFix" result="shape"/>
<feColorMatrix in="SourceAlpha" type="matrix" values="0 0 0 0 0 0 0 0 0 0 0 0 0 0 0 0 0 0 127 0" result="hardAlpha"/>
<feOffset dx="-6.05439" dy="-6.05439"/>
<feGaussianBlur stdDeviation="5.04533"/>
<feComposite in2="hardAlpha" operator="arithmetic" k2="-1" k3="1"/>
<feColorMatrix type="matrix" values="0 0 0 0 0.803271 0 0 0 0 0.868847 0 0 0 0 1 0 0 0 1 0"/>
<feBlend mode="normal" in2="shape" result="effect1_innerShadow_101_196"/>
</filter>
<filter id="filter1_i_101_196" x="76.0186" y="53.4744" width="9.75928" height="7.52616" filterUnits="userSpaceOnUse" color-interpolation-filters="sRGB">
<feFlood flood-opacity="0" result="BackgroundImageFix"/>
<feBlend mode="normal" in="SourceGraphic" in2="BackgroundImageFix" result="shape"/>
<feColorMatrix in="SourceAlpha" type="matrix" values="0 0 0 0 0 0 0 0 0 0 0 0 0 0 0 0 0 0 127 0" result="hardAlpha"/>
<feOffset dy="1.00907"/>
<feGaussianBlur stdDeviation="0.504533"/>
<feComposite in2="hardAlpha" operator="arithmetic" k2="-1" k3="1"/>
<feColorMatrix type="matrix" values="0 0 0 0 0.133333 0 0 0 0 0.309804 0 0 0 0 0.74902 0 0 0 1 0"/>
<feBlend mode="normal" in2="shape" result="effect1_innerShadow_101_196"/>
</filter>
<filter id="filter2_di_101_196" x="82.3532" y="30.7304" width="42.5618" height="42.5618" filterUnits="userSpaceOnUse" color-interpolation-filters="sRGB">
<feFlood flood-opacity="0" result="BackgroundImageFix"/>
<feColorMatrix in="SourceAlpha" type="matrix" values="0 0 0 0 0 0 0 0 0 0 0 0 0 0 0 0 0 0 127 0" result="hardAlpha"/>
<feOffset dx="3.0272" dy="2.01813"/>
<feGaussianBlur stdDeviation="2.01813"/>
<feComposite in2="hardAlpha" operator="out"/>
<feColorMatrix type="matrix" values="0 0 0 0 0 0 0 0 0 0 0 0 0 0 0 0 0 0 0.15 0"/>
<feBlend mode="normal" in2="BackgroundImageFix" result="effect1_dropShadow_101_196"/>
<feBlend mode="normal" in="SourceGraphic" in2="effect1_dropShadow_101_196" result="shape"/>
<feColorMatrix in="SourceAlpha" type="matrix" values="0 0 0 0 0 0 0 0 0 0 0 0 0 0 0 0 0 0 127 0" result="hardAlpha"/>
<feOffset dy="2.01813"/>
<feGaussianBlur stdDeviation="1.00907"/>
<feComposite in2="hardAlpha" operator="arithmetic" k2="-1" k3="1"/>
<feColorMatrix type="matrix" values="0 0 0 0 0.244065 0 0 0 0 0.451742 0 0 0 0 0.975879 0 0 0 1 0"/>
<feBlend mode="normal" in2="shape" result="effect2_innerShadow_101_196"/>
</filter>
<filter id="filter3_di_101_196" x="44.7263" y="46.058" width="41.6072" height="41.6072" filterUnits="userSpaceOnUse" color-interpolation-filters="sRGB">
<feFlood flood-opacity="0" result="BackgroundImageFix"/>
<feColorMatrix in="SourceAlpha" type="matrix" values="0 0 0 0 0 0 0 0 0 0 0 0 0 0 0 0 0 0 127 0" result="hardAlpha"/>
<feOffset dx="3.0272" dy="2.01813"/>
<feGaussianBlur stdDeviation="2.01813"/>
<feComposite in2="hardAlpha" operator="out"/>
<feColorMatrix type="matrix" values="0 0 0 0 0 0 0 0 0 0 0 0 0 0 0 0 0 0 0.15 0"/>
<feBlend mode="normal" in2="BackgroundImageFix" result="effect1_dropShadow_101_196"/>
<feBlend mode="normal" in="SourceGraphic" in2="effect1_dropShadow_101_196" result="shape"/>
<feColorMatrix in="SourceAlpha" type="matrix" values="0 0 0 0 0 0 0 0 0 0 0 0 0 0 0 0 0 0 127 0" result="hardAlpha"/>
<feOffset dy="2.01813"/>
<feGaussianBlur stdDeviation="1.00907"/>
<feComposite in2="hardAlpha" operator="arithmetic" k2="-1" k3="1"/>
<feColorMatrix type="matrix" values="0 0 0 0 0.244065 0 0 0 0 0.451742 0 0 0 0 0.975879 0 0 0 1 0"/>
<feBlend mode="normal" in2="shape" result="effect2_innerShadow_101_196"/>
</filter>
<filter id="filter4_i_101_196" x="112.751" y="50.077" width="45.1802" height="47.1981" filterUnits="userSpaceOnUse" color-interpolation-filters="sRGB">
<feFlood flood-opacity="0" result="BackgroundImageFix"/>
<feBlend mode="normal" in="SourceGraphic" in2="BackgroundImageFix" result="shape"/>
<feColorMatrix in="SourceAlpha" type="matrix" values="0 0 0 0 0 0 0 0 0 0 0 0 0 0 0 0 0 0 127 0" result="hardAlpha"/>
<feOffset dx="2.01813" dy="-4.03626"/>
<feGaussianBlur stdDeviation="3.0272"/>
<feComposite in2="hardAlpha" operator="arithmetic" k2="-1" k3="1"/>
<feColorMatrix type="matrix" values="0 0 0 0 0.829948 0 0 0 0 0.888252 0 0 0 0 1 0 0 0 1 0"/>
<feBlend mode="normal" in2="shape" result="effect1_innerShadow_101_196"/>
</filter>
<linearGradient id="paint0_linear_101_196" x1="64.1215" y1="109.748" x2="68.0468" y2="125.682" gradientUnits="userSpaceOnUse">
<stop stop-color="white"/>
<stop stop-color="white"/>
<stop offset="1" stop-color="#DBE7FF"/>
</linearGradient>
<linearGradient id="paint1_linear_101_196" x1="128.381" y1="80.0069" x2="121.408" y2="105.232" gradientUnits="userSpaceOnUse">
<stop stop-color="#F3F7FF"/>
<stop offset="0.978213" stop-color="#D5E3FF"/>
</linearGradient>
<clipPath id="clip0_101_196">
<rect x="112.751" y="61.0278" width="36.901" height="36.901" rx="18.4505" transform="rotate(-10.8 112.751 61.0278)" fill="white"/>
</clipPath>
</defs>
</svg>
