<svg width="71" height="71" viewBox="0 0 71 71" fill="none" xmlns="http://www.w3.org/2000/svg">
<g clip-path="url(#clip0_33_4033)">
<g filter="url(#filter0_i_33_4033)">
<path d="M7.91661 51.1097C11.9438 42.9363 16.4316 50.8515 19.0207 53.6611C19.8175 54.6073 21.4419 56.607 21.5651 57.0365L12.7885 61.4217C12.6577 60.8308 12.9093 60.9652 9.7306 58.4977C7.18761 56.5238 7.02755 52.9141 7.91661 51.1097Z" fill="white"/>
</g>
<path d="M16.4745 51.2053C17.6642 51.7578 19.8342 54.223 20.5706 55.5287L25.9036 58.0507L22.3645 65.977C17.258 64.1648 12.6278 62.091 10.4109 59.0681L16.4745 51.2053Z" fill="#011E2A"/>
<path d="M10.6963 58.9122C12.2526 56.8985 16.241 51.6033 16.4579 50.8958" stroke="#FFC100" stroke-width="1.40635" stroke-linecap="round"/>
<g filter="url(#filter1_i_33_4033)">
<path d="M52.224 70.5522C59.653 67.9844 53.487 61.7633 50.5985 59.2626C49.6281 58.4955 47.5789 56.934 47.1458 56.8241L43.0349 65.7324C43.6296 65.8449 43.4875 65.5975 46.0523 68.6982C48.1042 71.1788 51.0217 70.9678 52.224 70.5522Z" fill="white"/>
</g>
<path d="M53.301 61.8417C52.7119 60.6697 50.1197 58.6027 48.7917 57.9072L43.1948 58.7469L45.9205 67.465L53.301 61.8417Z" fill="#021822"/>
<path d="M46.8309 66.9385C48.7954 65.3205 52.8994 62.0247 53.5998 61.786" stroke="#FFC100" stroke-width="1.40635" stroke-linecap="round"/>
<g filter="url(#filter2_i_33_4033)">
<path d="M34.7748 79.7361V74.8082H33.6153V79.7361C34.1942 80.941 33.6536 81.8343 33.1222 82.2546C32.8939 82.5516 31.525 83.1455 27.876 83.1455C24.227 83.1455 23.3525 82.8267 22.7342 81.9706C21.4195 80.1501 17.9569 73.7111 18.5952 65.8183C19.1457 59.0122 20.6705 57.767 22.3971 56.1426C25.0665 53.6313 44.7316 53.4637 46.5106 56.1426C47.4348 57.5344 49.0189 62.5443 49.3815 65.8183C50.393 75.0855 45.8303 82.1125 45.3543 82.8456L45.344 82.8614C44.9286 83.5018 44.1544 83.9523 40.0719 84.0363C36.8059 84.1036 35.3503 83.5319 34.8681 83.1455C33.8102 82.0877 34.3183 80.4959 34.7748 79.7361Z" fill="white"/>
</g>
<path d="M18.8498 71.7241C17.0727 62.5421 20.7061 56.3291 22.5543 55.0608L46.3873 56.3714C49.4936 58.9683 49.8347 67.6885 49.3948 71.7241H18.8498Z" fill="#0F2630"/>
<path d="M36.9963 62.2015C29.4627 61.7893 23.8669 57.4367 22.1487 56.4406C27.1189 50.8893 46.3447 55.8984 49.8443 53.9676C49.8443 61.4615 48.0337 62.8053 36.9963 62.2015Z" fill="#020709"/>
<ellipse cx="22.4178" cy="26.2182" rx="4.73017" ry="5.67598" transform="rotate(1.4899 22.4178 26.2182)" fill="white"/>
<ellipse cx="21.8885" cy="24.9134" rx="1.77021" ry="2.12417" transform="rotate(1.4899 21.8885 24.9134)" fill="#FFF1C6"/>
<path d="M52.9269 31.8606C52.0529 34.871 53.3165 37.884 55.7492 38.5902C56.4269 38.787 60.8624 37.4284 61.7363 34.418C62.6103 31.4075 61.3467 28.3945 58.914 27.6883C56.4813 26.9821 53.8008 28.8501 52.9269 31.8606Z" fill="#E5EDFF"/>
<ellipse cx="1.77021" cy="2.12417" rx="1.77021" ry="2.12417" transform="matrix(-0.960352 -0.278792 -0.278792 0.960352 60.6622 30.5505)" fill="#E9DEBD"/>
<g filter="url(#filter3_i_33_4033)">
<path fill-rule="evenodd" clip-rule="evenodd" d="M40.0531 21.0972C42.3914 20.7222 45.6933 19.884 48.7412 18.2449C49.4227 18.0007 50.7747 17.9199 50.7317 19.5502C50.6951 20.9332 49.8656 22.3947 48.5778 23.6033C59.5212 28.8024 62.3035 39.9067 60.9248 48.7725C59.2492 59.5479 47.3693 62.2064 34.2623 60.1682C21.1554 58.13 10.6184 51.4013 12.294 40.6258C13.9601 29.9123 24.0824 18.3052 40.0531 21.0972Z" fill="white"/>
</g>
<circle cx="28.1868" cy="38.104" r="5.05437" transform="rotate(8.83901 28.1868 38.104)" fill="#1D1D1D"/>
<circle cx="45.1076" cy="40.8064" r="5.05437" transform="rotate(8.83901 45.1076 40.8064)" fill="#1D1D1D"/>
<circle cx="31.4486" cy="34.3357" r="0.868417" transform="rotate(23.839 31.4486 34.3357)" fill="white"/>
<circle cx="48.0546" cy="36.6399" r="1.01149" transform="rotate(23.839 48.0546 36.6399)" fill="white"/>
<rect x="27.7192" y="30.1604" width="3.54809" height="13.2021" transform="rotate(29.0279 27.7192 30.1604)" fill="#B8D4FF" fill-opacity="0.3"/>
<rect x="50.5778" y="34.4331" width="2.37913" height="13.8488" transform="rotate(29.0279 50.5778 34.4331)" fill="#B8D4FF" fill-opacity="0.1"/>
<g filter="url(#filter4_i_33_4033)">
<line x1="34.8438" y1="37.6877" x2="39.0632" y2="38.3439" stroke="#1D48B5" stroke-width="1.38562"/>
</g>
<g filter="url(#filter5_di_33_4033)">
<circle cx="46.387" cy="39.9868" r="7.199" transform="rotate(8.83901 46.387 39.9868)" stroke="#C67DC9" stroke-width="1.38562" shape-rendering="crispEdges"/>
</g>
<g filter="url(#filter6_di_33_4033)">
<circle cx="27.6082" cy="37.472" r="6.98056" transform="rotate(8.83901 27.6082 37.472)" stroke="#C67DC9" stroke-width="1.38562" shape-rendering="crispEdges"/>
</g>
<ellipse cx="36.3632" cy="44.8687" rx="2.28532" ry="1.40635" transform="rotate(8.83901 36.3632 44.8687)" fill="#1F1F1F"/>
<ellipse cx="35.1969" cy="44.2058" rx="0.5746" ry="0.383066" transform="rotate(-14.4317 35.1969 44.2058)" fill="white"/>
<path d="M38.9976 50.3444L31.4287 48.547C30.9511 50.711 30.7264 53.7651 34.5124 54.4752C37.5412 55.0433 38.7646 51.958 38.9976 50.3444Z" fill="#F44D3D"/>
<path fill-rule="evenodd" clip-rule="evenodd" d="M37.5028 53.5581C36.6528 53.0574 35.572 52.626 34.3625 52.3406C33.2915 52.0878 32.2595 51.9826 31.3539 52.009C31.7518 53.3553 32.7897 53.9681 34.057 54.397C35.5043 54.8869 36.6682 54.3912 37.5028 53.5581Z" fill="#FC6D5C"/>
<path d="M36.1393 50.6529L33.8659 50.0739C33.3303 49.9374 32.9578 49.4519 32.9647 48.8992L37.9155 50.0908C37.4786 50.6008 36.7901 50.8187 36.1393 50.6529Z" fill="white"/>
</g>
<defs>
<filter id="filter0_i_33_4033" x="4.61308" y="44.6983" width="16.952" height="16.7233" filterUnits="userSpaceOnUse" color-interpolation-filters="sRGB">
<feFlood flood-opacity="0" result="BackgroundImageFix"/>
<feBlend mode="normal" in="SourceGraphic" in2="BackgroundImageFix" result="shape"/>
<feColorMatrix in="SourceAlpha" type="matrix" values="0 0 0 0 0 0 0 0 0 0 0 0 0 0 0 0 0 0 127 0" result="hardAlpha"/>
<feOffset dx="-2.8127" dy="-2.8127"/>
<feGaussianBlur stdDeviation="2.10953"/>
<feComposite in2="hardAlpha" operator="arithmetic" k2="-1" k3="1"/>
<feColorMatrix type="matrix" values="0 0 0 0 0.803922 0 0 0 0 0.870588 0 0 0 0 1 0 0 0 1 0"/>
<feBlend mode="normal" in2="shape" result="effect1_innerShadow_33_4033"/>
</filter>
<filter id="filter1_i_33_4033" x="42.3317" y="54.0115" width="13.42" height="16.7959" filterUnits="userSpaceOnUse" color-interpolation-filters="sRGB">
<feFlood flood-opacity="0" result="BackgroundImageFix"/>
<feBlend mode="normal" in="SourceGraphic" in2="BackgroundImageFix" result="shape"/>
<feColorMatrix in="SourceAlpha" type="matrix" values="0 0 0 0 0 0 0 0 0 0 0 0 0 0 0 0 0 0 127 0" result="hardAlpha"/>
<feOffset dx="-0.703175" dy="-2.8127"/>
<feGaussianBlur stdDeviation="2.10953"/>
<feComposite in2="hardAlpha" operator="arithmetic" k2="-1" k3="1"/>
<feColorMatrix type="matrix" values="0 0 0 0 0.803922 0 0 0 0 0.870588 0 0 0 0 1 0 0 0 1 0"/>
<feBlend mode="normal" in2="shape" result="effect1_innerShadow_33_4033"/>
</filter>
<filter id="filter2_i_33_4033" x="17.8143" y="53.141" width="31.7131" height="30.9007" filterUnits="userSpaceOnUse" color-interpolation-filters="sRGB">
<feFlood flood-opacity="0" result="BackgroundImageFix"/>
<feBlend mode="normal" in="SourceGraphic" in2="BackgroundImageFix" result="shape"/>
<feColorMatrix in="SourceAlpha" type="matrix" values="0 0 0 0 0 0 0 0 0 0 0 0 0 0 0 0 0 0 127 0" result="hardAlpha"/>
<feOffset dx="-0.703175" dy="-1.05476"/>
<feGaussianBlur stdDeviation="2.10953"/>
<feComposite in2="hardAlpha" operator="arithmetic" k2="-1" k3="1"/>
<feColorMatrix type="matrix" values="0 0 0 0 0.803922 0 0 0 0 0.870588 0 0 0 0 1 0 0 0 1 0"/>
<feBlend mode="normal" in2="shape" result="effect1_innerShadow_33_4033"/>
</filter>
<filter id="filter3_i_33_4033" x="9.34716" y="15.3398" width="51.9039" height="45.4605" filterUnits="userSpaceOnUse" color-interpolation-filters="sRGB">
<feFlood flood-opacity="0" result="BackgroundImageFix"/>
<feBlend mode="normal" in="SourceGraphic" in2="BackgroundImageFix" result="shape"/>
<feColorMatrix in="SourceAlpha" type="matrix" values="0 0 0 0 0 0 0 0 0 0 0 0 0 0 0 0 0 0 127 0" result="hardAlpha"/>
<feOffset dx="-2.77124" dy="-2.77124"/>
<feGaussianBlur stdDeviation="2.30937"/>
<feComposite in2="hardAlpha" operator="arithmetic" k2="-1" k3="1"/>
<feColorMatrix type="matrix" values="0 0 0 0 0.803271 0 0 0 0 0.868847 0 0 0 0 1 0 0 0 1 0"/>
<feBlend mode="normal" in2="shape" result="effect1_innerShadow_33_4033"/>
</filter>
<filter id="filter4_i_33_4033" x="34.7373" y="37.0032" width="4.43237" height="2.48726" filterUnits="userSpaceOnUse" color-interpolation-filters="sRGB">
<feFlood flood-opacity="0" result="BackgroundImageFix"/>
<feBlend mode="normal" in="SourceGraphic" in2="BackgroundImageFix" result="shape"/>
<feColorMatrix in="SourceAlpha" type="matrix" values="0 0 0 0 0 0 0 0 0 0 0 0 0 0 0 0 0 0 127 0" result="hardAlpha"/>
<feOffset dy="0.461874"/>
<feGaussianBlur stdDeviation="0.230937"/>
<feComposite in2="hardAlpha" operator="arithmetic" k2="-1" k3="1"/>
<feColorMatrix type="matrix" values="0 0 0 0 0.133333 0 0 0 0 0.309804 0 0 0 0 0.74902 0 0 0 1 0"/>
<feBlend mode="normal" in2="shape" result="effect1_innerShadow_33_4033"/>
</filter>
<filter id="filter5_di_33_4033" x="38.0321" y="31.17" width="19.4809" height="19.4809" filterUnits="userSpaceOnUse" color-interpolation-filters="sRGB">
<feFlood flood-opacity="0" result="BackgroundImageFix"/>
<feColorMatrix in="SourceAlpha" type="matrix" values="0 0 0 0 0 0 0 0 0 0 0 0 0 0 0 0 0 0 127 0" result="hardAlpha"/>
<feOffset dx="1.38562" dy="0.923748"/>
<feGaussianBlur stdDeviation="0.923748"/>
<feComposite in2="hardAlpha" operator="out"/>
<feColorMatrix type="matrix" values="0 0 0 0 0 0 0 0 0 0 0 0 0 0 0 0 0 0 0.15 0"/>
<feBlend mode="normal" in2="BackgroundImageFix" result="effect1_dropShadow_33_4033"/>
<feBlend mode="normal" in="SourceGraphic" in2="effect1_dropShadow_33_4033" result="shape"/>
<feColorMatrix in="SourceAlpha" type="matrix" values="0 0 0 0 0 0 0 0 0 0 0 0 0 0 0 0 0 0 127 0" result="hardAlpha"/>
<feOffset dy="0.923748"/>
<feGaussianBlur stdDeviation="0.461874"/>
<feComposite in2="hardAlpha" operator="arithmetic" k2="-1" k3="1"/>
<feColorMatrix type="matrix" values="0 0 0 0 0.244065 0 0 0 0 0.451742 0 0 0 0 0.975879 0 0 0 1 0"/>
<feBlend mode="normal" in2="shape" result="effect2_innerShadow_33_4033"/>
</filter>
<filter id="filter6_di_33_4033" x="19.4718" y="28.8739" width="19.044" height="19.0439" filterUnits="userSpaceOnUse" color-interpolation-filters="sRGB">
<feFlood flood-opacity="0" result="BackgroundImageFix"/>
<feColorMatrix in="SourceAlpha" type="matrix" values="0 0 0 0 0 0 0 0 0 0 0 0 0 0 0 0 0 0 127 0" result="hardAlpha"/>
<feOffset dx="1.38562" dy="0.923748"/>
<feGaussianBlur stdDeviation="0.923748"/>
<feComposite in2="hardAlpha" operator="out"/>
<feColorMatrix type="matrix" values="0 0 0 0 0 0 0 0 0 0 0 0 0 0 0 0 0 0 0.15 0"/>
<feBlend mode="normal" in2="BackgroundImageFix" result="effect1_dropShadow_33_4033"/>
<feBlend mode="normal" in="SourceGraphic" in2="effect1_dropShadow_33_4033" result="shape"/>
<feColorMatrix in="SourceAlpha" type="matrix" values="0 0 0 0 0 0 0 0 0 0 0 0 0 0 0 0 0 0 127 0" result="hardAlpha"/>
<feOffset dy="0.923748"/>
<feGaussianBlur stdDeviation="0.461874"/>
<feComposite in2="hardAlpha" operator="arithmetic" k2="-1" k3="1"/>
<feColorMatrix type="matrix" values="0 0 0 0 0.244065 0 0 0 0 0.451742 0 0 0 0 0.975879 0 0 0 1 0"/>
<feBlend mode="normal" in2="shape" result="effect2_innerShadow_33_4033"/>
</filter>
<clipPath id="clip0_33_4033">
<rect width="71" height="71" rx="35.5" fill="white"/>
</clipPath>
</defs>
</svg>
