<svg width="19" height="19" viewBox="0 0 19 19" fill="none" xmlns="http://www.w3.org/2000/svg">
<g id="time-svgrepo-com 1" clip-path="url(#clip0_33_4797)">
<g id="Group">
<path id="Vector" d="M9.50011 0C4.2619 0 0.000457764 4.26167 0.000457764 9.49989C0.000457764 14.7383 4.2619 19 9.50011 19C14.7383 19 19 14.7383 19 9.49989C19 4.26167 14.7381 0 9.50011 0ZM9.50011 17.6265C5.01937 17.6265 1.37371 13.9809 1.37371 9.49989C1.37371 5.01892 5.01914 1.37348 9.50011 1.37348C13.9811 1.37348 17.6265 5.01892 17.6265 9.49989C17.6265 13.9809 13.9811 17.6265 9.50011 17.6265Z" fill="black"/>
<path id="Vector_2" d="M12.2487 10.3741C12.245 10.3741 12.2418 10.3741 12.2381 10.3741L10.1866 10.4048V5.03586C10.1866 4.65655 9.87919 4.34912 9.49988 4.34912C9.12057 4.34912 8.81314 4.65655 8.81314 5.03586V11.1021C8.81314 11.1034 8.8136 11.1048 8.8136 11.1062C8.8136 11.1085 8.81314 11.1105 8.81314 11.1124C8.8136 11.1403 8.81886 11.1666 8.82253 11.1934C8.82482 11.2101 8.82504 11.2273 8.82825 11.2437C8.83443 11.2733 8.84473 11.3007 8.85457 11.3284C8.85961 11.3429 8.86281 11.358 8.86877 11.3717C8.88067 11.3999 8.89669 11.4255 8.91203 11.4518C8.91913 11.4635 8.92439 11.4763 8.93195 11.4878C8.94934 11.5132 8.97018 11.5358 8.99078 11.559C8.99948 11.5686 9.00657 11.5796 9.01573 11.5889C9.03793 11.6109 9.06289 11.6295 9.08784 11.6485C9.09791 11.656 9.10684 11.6652 9.11714 11.6723C9.14415 11.6906 9.17368 11.705 9.20321 11.7192C9.21351 11.724 9.22267 11.7309 9.2332 11.7352C9.26753 11.7496 9.30416 11.7597 9.34124 11.7686C9.34811 11.7702 9.35452 11.7735 9.36162 11.7748C9.40603 11.7838 9.45204 11.7888 9.49919 11.7888C9.50263 11.7888 9.50629 11.7888 9.50972 11.7888L12.2585 11.7476C12.6376 11.7419 12.9404 11.4296 12.9349 11.0505C12.9297 10.6749 12.6232 10.3741 12.2487 10.3741Z" fill="black"/>
</g>
</g>
<defs>
<clipPath id="clip0_33_4797">
<rect width="19" height="19" fill="white"/>
</clipPath>
</defs>
</svg>
