<svg width="18" height="18" viewBox="0 0 18 18" fill="none" xmlns="http://www.w3.org/2000/svg">
<g id="download-svgrepo-com 1" clip-path="url(#clip0_33_4807)">
<g id="Group">
<g id="Group_2">
<path id="Vector" d="M16.8961 12.0024C16.4988 12.0024 16.1789 12.3224 16.1789 12.7196V16.179H1.82109V12.7196C1.82109 12.3224 1.50117 12.0024 1.10391 12.0024C0.706641 12.0024 0.386719 12.3224 0.386719 12.7196V16.8962C0.386719 17.2935 0.706641 17.6134 1.10391 17.6134H16.8961C17.2934 17.6134 17.6133 17.2935 17.6133 16.8962V12.7196C17.6133 12.3224 17.2934 12.0024 16.8961 12.0024Z" fill="black"/>
<path id="Vector_2" d="M8.47266 12.853C8.87696 13.2608 9.37266 13.0358 9.52383 12.853L13.6477 8.41631C13.9184 8.12451 13.9008 7.671 13.609 7.40029C13.3172 7.12959 12.8637 7.14717 12.5965 7.43896L9.71719 10.5362V1.21279C9.71719 0.815527 9.39727 0.495605 9 0.495605C8.60274 0.495605 8.28282 0.815527 8.28282 1.21279V10.5397L5.40352 7.44248C5.13281 7.15068 4.6793 7.13662 4.3875 7.40381C4.09571 7.67451 4.08164 8.12803 4.34883 8.41982L8.47266 12.853Z" fill="black"/>
</g>
</g>
</g>
<defs>
<clipPath id="clip0_33_4807">
<rect width="18" height="18" fill="white"/>
</clipPath>
</defs>
</svg>
