<svg width="115" height="69" viewBox="0 0 115 69" fill="none" xmlns="http://www.w3.org/2000/svg">
<path d="M57.0302 71.9495C63.4109 70.6042 77.3438 66.6872 82.1408 61.9824C80.7818 68.4922 59.9041 74.9405 57.0302 71.9495Z" fill="#FFC100"/>
<ellipse cx="28.6983" cy="33.0449" rx="6.72687" ry="8.07193" transform="rotate(-22.3491 28.6983 33.0449)" fill="white"/>
<ellipse cx="27.2593" cy="31.6526" rx="2.51745" ry="3.02082" transform="rotate(-22.3491 27.2593 31.6526)" fill="#FFF1C6"/>
<path d="M71.6273 22.8482C72.2208 27.2665 75.5963 30.4595 79.1666 29.9799C80.1612 29.8463 85.15 25.5297 84.5565 21.1114C83.963 16.6931 80.5875 13.5001 77.0172 13.9797C73.4469 14.4593 71.0338 18.4299 71.6273 22.8482Z" fill="#E5EDFF"/>
<ellipse cx="2.51745" cy="3.02082" rx="2.51745" ry="3.02082" transform="matrix(-0.991098 0.133137 0.133137 0.991098 80.9365 16.6987)" fill="#E9DEBD"/>
<g filter="url(#filter0_i_33_5437)">
<path fill-rule="evenodd" clip-rule="evenodd" d="M48.6947 16.2473C51.5208 14.4156 55.334 11.4274 58.3566 7.54358C59.1026 6.83424 60.8149 5.95194 61.696 8.09743C62.4434 9.91733 62.2044 12.2953 61.2239 14.6075C78.4474 15.0805 88.4491 27.9257 91.7515 40.2506C95.7653 55.2303 81.8401 65.5168 63.6192 70.399C45.3983 75.2813 27.8243 72.585 23.8105 57.6053C19.8198 42.7116 26.3153 21.7951 48.6947 16.2473Z" fill="white"/>
</g>
<path d="M68.1634 44.3987L68.1398 44.3146L68.0573 44.3434L46.9323 51.7238L46.8569 51.7501L46.8812 51.8262C48.0641 55.5363 50.3654 58.0966 53.3042 59.3772C56.242 60.6575 59.8077 60.655 63.5139 59.2585C66.7008 58.0576 68.1621 55.4017 68.6767 52.5229C69.1909 49.6464 68.7628 46.5369 68.1634 44.3987Z" fill="#F44D3D" stroke="#CDDEFF" stroke-width="0.164211"/>
<path fill-rule="evenodd" clip-rule="evenodd" d="M68.0947 54.2819C66.3421 53.7853 63.7172 53.8821 60.9423 54.6709C57.2037 55.7336 54.3573 57.7213 53.7787 59.5C56.5973 60.5685 59.9538 60.4964 63.4415 59.1821C65.9259 58.246 67.3519 56.4163 68.0947 54.2819Z" fill="#FC6D5C"/>
<path d="M62.4512 46.3862L51.3971 50.1773C52.4238 50.6725 55.2776 51.3373 58.4796 50.0351C61.6817 48.733 62.5088 47.085 62.4512 46.3862Z" fill="white"/>
<circle cx="42.2621" cy="42.1668" r="7.18792" transform="rotate(-18.9775 42.2621 42.1668)" fill="#1D1D1D"/>
<circle cx="63.6344" cy="34.5877" r="7.18792" transform="rotate(-18.9775 63.6344 34.5877)" fill="#1D1D1D"/>
<circle cx="43.4291" cy="44.4216" r="4.46021" fill="#3E3E3E"/>
<circle cx="64.3632" cy="36.0247" r="4.46021" fill="#3E3E3E"/>
<ellipse cx="67.3176" cy="40.4847" rx="8.0212" ry="2.88364" transform="rotate(-24.0519 67.3176 40.4847)" fill="white"/>
<ellipse cx="44.7029" cy="49.2296" rx="8.0212" ry="2.88364" transform="rotate(-20.4688 44.7029 49.2296)" fill="white"/>
<circle cx="44.3391" cy="35.3898" r="1.23499" fill="white"/>
<circle cx="65.0735" cy="27.4751" r="1.43846" fill="white"/>
<rect x="36.6275" y="32.6348" width="5.04581" height="18.7749" transform="rotate(5.18885 36.6275 32.6348)" fill="#B8D4FF" fill-opacity="0.3"/>
<rect x="68.9161" y="23.9634" width="3.38341" height="18.3273" transform="rotate(5.18885 68.9161 23.9634)" fill="#B8D4FF" fill-opacity="0.3"/>
<g filter="url(#filter1_i_33_5437)">
<line x1="49.8788" y1="38.1479" x2="55.4408" y2="35.7104" stroke="#1D48B5" stroke-width="1.97053"/>
</g>
<g filter="url(#filter2_di_33_5437)">
<circle cx="65.4892" cy="32.542" r="10.2378" transform="rotate(-28.3952 65.4892 32.542)" stroke="#1A44AE" stroke-width="1.97053" shape-rendering="crispEdges"/>
</g>
<g filter="url(#filter3_di_33_5437)">
<circle cx="40.6854" cy="42.209" r="9.92719" transform="rotate(-28.3952 40.6854 42.209)" stroke="#1A44AE" stroke-width="1.97053" shape-rendering="crispEdges"/>
</g>
<path d="M79.4981 64.7153C74.4778 69.3189 61.0257 72.3187 56.1747 72.7424C56.3442 77.4663 58.4368 88.9474 74.2439 83.9925C86.7137 80.0837 81.9609 68.9396 79.4981 64.7153Z" fill="#5BCBFB"/>
<path d="M73.4621 70.1353L74.1759 67.9624C70.2521 69.7629 63.9663 71.3376 61.5578 71.8695L63.1557 72.7718C63.4168 72.9192 63.7235 72.9638 64.0158 72.8968L72.5881 70.9324C72.999 70.8382 73.3306 70.5358 73.4621 70.1353Z" fill="white"/>
<path d="M34.2992 68.831C40.5512 66.9242 48.062 71.2083 53.483 71.971L55.1849 79.3845C49.723 80.4992 47.8963 82.0549 38.3474 80.8633C27.1775 79.4695 31.3888 69.7186 34.2992 68.831Z" fill="url(#paint0_linear_33_5437)"/>
<path d="M35.5305 80.9179C35.313 80.2945 37.4001 68.7027 37.8244 68.099C38.203 67.6634 39.0701 67.885 39.1708 68.395C39.8106 71.6334 37.8244 80.6807 37.2209 81.1499C36.5761 81.6513 35.7041 81.2614 35.5305 80.9179Z" fill="#FFC100"/>
<ellipse cx="55.5874" cy="78.0945" rx="9.64542" ry="12.7556" transform="rotate(-22.1969 55.5874 78.0945)" fill="white"/>
<ellipse cx="56.2155" cy="79.0053" rx="6.67485" ry="8.82715" transform="rotate(-22.1969 56.2155 79.0053)" fill="#D7E5FF"/>
<path d="M77.0936 66.5684L77.2869 53.2782L93.4357 55.3208L82.2601 68.2557C80.4341 69.6875 77.2143 68.2346 77.0936 66.5684Z" fill="url(#paint1_linear_33_5437)"/>
<circle cx="87.2332" cy="51.8052" r="10.6482" transform="rotate(-10.8 87.2332 51.8052)" fill="#FFC100"/>
<g filter="url(#filter4_i_33_5437)">
<g clip-path="url(#clip0_33_5437)">
<circle cx="87.4422" cy="49.2726" r="12.0102" transform="rotate(-10.8 87.4422 49.2726)" fill="white"/>
</g>
</g>
<defs>
<filter id="filter0_i_33_5437" x="18.7651" y="2.80552" width="73.6804" height="69.8151" filterUnits="userSpaceOnUse" color-interpolation-filters="sRGB">
<feFlood flood-opacity="0" result="BackgroundImageFix"/>
<feBlend mode="normal" in="SourceGraphic" in2="BackgroundImageFix" result="shape"/>
<feColorMatrix in="SourceAlpha" type="matrix" values="0 0 0 0 0 0 0 0 0 0 0 0 0 0 0 0 0 0 127 0" result="hardAlpha"/>
<feOffset dx="-3.94107" dy="-3.94107"/>
<feGaussianBlur stdDeviation="3.28422"/>
<feComposite in2="hardAlpha" operator="arithmetic" k2="-1" k3="1"/>
<feColorMatrix type="matrix" values="0 0 0 0 0.803271 0 0 0 0 0.868847 0 0 0 0 1 0 0 0 1 0"/>
<feBlend mode="normal" in2="shape" result="effect1_innerShadow_33_5437"/>
</filter>
<filter id="filter1_i_33_5437" x="49.4833" y="34.8081" width="6.353" height="4.89903" filterUnits="userSpaceOnUse" color-interpolation-filters="sRGB">
<feFlood flood-opacity="0" result="BackgroundImageFix"/>
<feBlend mode="normal" in="SourceGraphic" in2="BackgroundImageFix" result="shape"/>
<feColorMatrix in="SourceAlpha" type="matrix" values="0 0 0 0 0 0 0 0 0 0 0 0 0 0 0 0 0 0 127 0" result="hardAlpha"/>
<feOffset dy="0.656844"/>
<feGaussianBlur stdDeviation="0.328422"/>
<feComposite in2="hardAlpha" operator="arithmetic" k2="-1" k3="1"/>
<feColorMatrix type="matrix" values="0 0 0 0 0.133333 0 0 0 0 0.309804 0 0 0 0 0.74902 0 0 0 1 0"/>
<feBlend mode="normal" in2="shape" result="effect1_innerShadow_33_5437"/>
</filter>
<filter id="filter2_di_33_5437" x="53.6071" y="20.0032" width="27.7053" height="27.705" filterUnits="userSpaceOnUse" color-interpolation-filters="sRGB">
<feFlood flood-opacity="0" result="BackgroundImageFix"/>
<feColorMatrix in="SourceAlpha" type="matrix" values="0 0 0 0 0 0 0 0 0 0 0 0 0 0 0 0 0 0 127 0" result="hardAlpha"/>
<feOffset dx="1.97053" dy="1.31369"/>
<feGaussianBlur stdDeviation="1.31369"/>
<feComposite in2="hardAlpha" operator="out"/>
<feColorMatrix type="matrix" values="0 0 0 0 0 0 0 0 0 0 0 0 0 0 0 0 0 0 0.15 0"/>
<feBlend mode="normal" in2="BackgroundImageFix" result="effect1_dropShadow_33_5437"/>
<feBlend mode="normal" in="SourceGraphic" in2="effect1_dropShadow_33_5437" result="shape"/>
<feColorMatrix in="SourceAlpha" type="matrix" values="0 0 0 0 0 0 0 0 0 0 0 0 0 0 0 0 0 0 127 0" result="hardAlpha"/>
<feOffset dy="1.31369"/>
<feGaussianBlur stdDeviation="0.656844"/>
<feComposite in2="hardAlpha" operator="arithmetic" k2="-1" k3="1"/>
<feColorMatrix type="matrix" values="0 0 0 0 0.244065 0 0 0 0 0.451742 0 0 0 0 0.975879 0 0 0 1 0"/>
<feBlend mode="normal" in2="shape" result="effect2_innerShadow_33_5437"/>
</filter>
<filter id="filter3_di_33_5437" x="29.114" y="29.9807" width="27.0839" height="27.0839" filterUnits="userSpaceOnUse" color-interpolation-filters="sRGB">
<feFlood flood-opacity="0" result="BackgroundImageFix"/>
<feColorMatrix in="SourceAlpha" type="matrix" values="0 0 0 0 0 0 0 0 0 0 0 0 0 0 0 0 0 0 127 0" result="hardAlpha"/>
<feOffset dx="1.97053" dy="1.31369"/>
<feGaussianBlur stdDeviation="1.31369"/>
<feComposite in2="hardAlpha" operator="out"/>
<feColorMatrix type="matrix" values="0 0 0 0 0 0 0 0 0 0 0 0 0 0 0 0 0 0 0.15 0"/>
<feBlend mode="normal" in2="BackgroundImageFix" result="effect1_dropShadow_33_5437"/>
<feBlend mode="normal" in="SourceGraphic" in2="effect1_dropShadow_33_5437" result="shape"/>
<feColorMatrix in="SourceAlpha" type="matrix" values="0 0 0 0 0 0 0 0 0 0 0 0 0 0 0 0 0 0 127 0" result="hardAlpha"/>
<feOffset dy="1.31369"/>
<feGaussianBlur stdDeviation="0.656844"/>
<feComposite in2="hardAlpha" operator="arithmetic" k2="-1" k3="1"/>
<feColorMatrix type="matrix" values="0 0 0 0 0.244065 0 0 0 0 0.451742 0 0 0 0 0.975879 0 0 0 1 0"/>
<feBlend mode="normal" in2="shape" result="effect2_innerShadow_33_5437"/>
</filter>
<filter id="filter4_i_33_5437" x="73.3946" y="32.5972" width="29.4097" height="30.7236" filterUnits="userSpaceOnUse" color-interpolation-filters="sRGB">
<feFlood flood-opacity="0" result="BackgroundImageFix"/>
<feBlend mode="normal" in="SourceGraphic" in2="BackgroundImageFix" result="shape"/>
<feColorMatrix in="SourceAlpha" type="matrix" values="0 0 0 0 0 0 0 0 0 0 0 0 0 0 0 0 0 0 127 0" result="hardAlpha"/>
<feOffset dx="1.31369" dy="-2.62738"/>
<feGaussianBlur stdDeviation="1.97053"/>
<feComposite in2="hardAlpha" operator="arithmetic" k2="-1" k3="1"/>
<feColorMatrix type="matrix" values="0 0 0 0 0.829948 0 0 0 0 0.888252 0 0 0 0 1 0 0 0 1 0"/>
<feBlend mode="normal" in2="shape" result="effect1_innerShadow_33_5437"/>
</filter>
<linearGradient id="paint0_linear_33_5437" x1="41.7395" y1="71.4405" x2="44.2947" y2="81.8126" gradientUnits="userSpaceOnUse">
<stop stop-color="white"/>
<stop stop-color="white"/>
<stop offset="1" stop-color="#DBE7FF"/>
</linearGradient>
<linearGradient id="paint1_linear_33_5437" x1="83.5689" y1="52.0799" x2="79.0297" y2="68.5" gradientUnits="userSpaceOnUse">
<stop stop-color="#F3F7FF"/>
<stop offset="0.978213" stop-color="#D5E3FF"/>
</linearGradient>
<clipPath id="clip0_33_5437">
<rect x="73.3946" y="39.7256" width="24.0205" height="24.0205" rx="12.0102" transform="rotate(-10.8 73.3946 39.7256)" fill="white"/>
</clipPath>
</defs>
</svg>
