<svg width="694" height="552" viewBox="0 0 694 552" fill="none" xmlns="http://www.w3.org/2000/svg">
<path d="M590.687 495.688C590.687 498.361 588.516 500.532 585.844 500.532C583.171 500.532 581 498.361 581 495.688C581 493.016 583.171 490.845 585.844 490.845C588.516 490.845 590.687 493.01 590.687 495.688Z" stroke="#4D2C5E" stroke-opacity="0.1" stroke-width="2" stroke-miterlimit="10" stroke-linecap="round" stroke-linejoin="round"/>
<path d="M637.68 537.696C640.355 537.696 642.523 535.528 642.523 532.853C642.523 530.178 640.355 528.009 637.68 528.009C635.005 528.009 632.836 530.178 632.836 532.853C632.836 535.528 635.005 537.696 637.68 537.696Z" stroke="#4D2C5E" stroke-opacity="0.1" stroke-width="2" stroke-miterlimit="10" stroke-linecap="round" stroke-linejoin="round"/>
<path d="M619.444 522.895C625.15 522.895 629.774 518.27 629.774 512.565C629.774 506.86 625.15 502.235 619.444 502.235C613.739 502.235 609.114 506.86 609.114 512.565C609.114 518.27 613.739 522.895 619.444 522.895Z" stroke="#4D2C5E" stroke-opacity="0.1" stroke-width="2" stroke-miterlimit="10" stroke-linecap="round" stroke-linejoin="round"/>
<path d="M637.443 512.565L633.998 518.587L632.171 525.291L625.472 527.113L619.444 530.563L613.417 527.113L606.712 525.291L604.891 518.587L601.44 512.565L604.891 506.537L606.712 499.833L613.417 498.011L619.444 494.561L625.472 498.011L632.171 499.833L633.998 506.537L637.443 512.565Z" stroke="#4D2C5E" stroke-opacity="0.1" stroke-width="2" stroke-miterlimit="10" stroke-linecap="round" stroke-linejoin="round"/>
<path d="M632.836 532.853C632.836 530.18 635.007 528.009 637.68 528.009C639.123 528.009 640.42 528.646 641.306 529.65C644.993 524.936 647.198 519.01 647.198 512.559C647.198 497.227 634.77 484.8 619.439 484.8C604.107 484.8 591.68 497.227 591.68 512.559C591.68 527.89 604.107 540.318 619.439 540.318C624.829 540.318 629.853 538.779 634.111 536.123C633.327 535.26 632.836 534.116 632.836 532.853Z" stroke="#4D2C5E" stroke-opacity="0.1" stroke-width="2" stroke-miterlimit="10" stroke-linecap="round" stroke-linejoin="round"/>
<path d="M619.444 475C606.492 475 595.069 481.558 588.319 491.533C589.734 492.378 590.687 493.923 590.687 495.694C590.687 498.367 588.516 500.538 585.844 500.538C585.184 500.538 584.558 500.402 583.989 500.165C582.63 504.05 581.885 508.217 581.885 512.565C581.885 533.309 598.705 550.13 619.45 550.13C640.195 550.13 657.015 533.309 657.015 512.565C657.015 491.82 640.189 475 619.444 475Z" stroke="#4D2C5E" stroke-opacity="0.1" stroke-width="2" stroke-miterlimit="10" stroke-linecap="round" stroke-linejoin="round"/>
<path d="M190.841 80.2254L167.535 72.3099C165.072 71.4757 163.758 68.7994 164.592 66.3366C165.426 63.8739 168.102 62.5591 170.559 63.3933L193.865 71.3088C196.327 72.1431 197.642 74.8194 196.808 77.2755C195.974 79.7449 193.304 81.0664 190.841 80.2254Z" stroke="#4D2C5E" stroke-opacity="0.1" stroke-width="3" stroke-miterlimit="10"/>
<path d="M187.778 89.2491L164.472 81.3336C162.009 80.4993 160.694 77.823 161.528 75.3669C162.363 72.9042 165.039 71.5893 167.502 72.4236L190.808 80.3325C193.27 81.1667 194.585 83.843 193.751 86.3058C192.91 88.7685 190.24 90.0833 187.778 89.2491Z" stroke="#4D2C5E" stroke-opacity="0.1" stroke-width="3" stroke-miterlimit="10"/>
<path d="M167.061 39.0531C167.088 39.1331 167.108 39.2066 167.135 39.2867C167.655 40.9485 170.725 51.4802 169.444 63.1666L194.445 71.4158C200.372 61.2645 209.108 54.6371 210.516 53.6093C210.583 53.5626 210.65 53.5159 210.71 53.4692C211.391 52.9819 212.051 52.4613 212.692 51.9074C216.456 48.6571 219.42 44.379 221.088 39.32C226.007 24.4234 217.918 8.35885 203.021 3.44004C188.125 -1.47878 172.06 6.61024 167.141 21.5068C165.466 26.5725 165.299 31.7716 166.394 36.6237C166.581 37.438 166.801 38.2522 167.061 39.0531Z" stroke="#4D2C5E" stroke-opacity="0.1" stroke-width="3" stroke-miterlimit="10"/>
<path d="M165.746 81.8809C165.466 86.8197 168.51 91.5249 173.435 93.1534C178.294 94.7552 183.466 92.8531 186.216 88.8286L165.746 81.8809Z" stroke="#4D2C5E" stroke-opacity="0.1" stroke-width="3" stroke-miterlimit="10"/>
<path d="M177.273 65.6163L184.701 43.1045C185.435 40.8887 184.227 38.4994 182.011 37.7652C179.795 37.0311 177.406 38.2391 176.672 40.4549C175.938 42.6707 177.146 45.06 179.362 45.7942L188.278 48.7374" stroke="#4D2C5E" stroke-opacity="0.1" stroke-width="3" stroke-miterlimit="10"/>
<path d="M187.07 68.8528L194.499 46.341C195.233 44.1252 197.622 42.9239 199.838 43.6513C202.054 44.3855 203.255 46.7748 202.528 48.9906C201.793 51.2064 199.404 52.4078 197.188 51.6803L188.272 48.737" stroke="#4D2C5E" stroke-opacity="0.1" stroke-width="3" stroke-miterlimit="10"/>
<path d="M226.367 47.0752L233.896 49.5646" stroke="#4D2C5E" stroke-opacity="0.1" stroke-width="3" stroke-miterlimit="10" stroke-linecap="round"/>
<path d="M229.818 37.5914L237.66 36.4102" stroke="#4D2C5E" stroke-opacity="0.1" stroke-width="3" stroke-miterlimit="10" stroke-linecap="round"/>
<path d="M221.102 55.2109L226.694 60.8305" stroke="#4D2C5E" stroke-opacity="0.1" stroke-width="3" stroke-miterlimit="10" stroke-linecap="round"/>
<path d="M156.443 23.9964L148.914 21.5137" stroke="#4D2C5E" stroke-opacity="0.1" stroke-width="3" stroke-miterlimit="10" stroke-linecap="round"/>
<path d="M159.319 14.3188L153.726 8.69922" stroke="#4D2C5E" stroke-opacity="0.1" stroke-width="3" stroke-miterlimit="10" stroke-linecap="round"/>
<path d="M155.835 33.667L148 34.8483" stroke="#4D2C5E" stroke-opacity="0.1" stroke-width="3" stroke-miterlimit="10" stroke-linecap="round"/>
<path d="M77.9929 259.578L8.78841 238.906C3.75514 237.404 0.898255 232.107 2.40002 227.073L16.221 180.788C17.7227 175.755 23.02 172.898 28.0532 174.4L97.2578 195.073C102.291 196.575 105.148 201.872 103.646 206.905L89.8252 253.19C88.3176 258.217 83.0203 261.08 77.9929 259.578Z" stroke="#4D2C5E" stroke-opacity="0.1" stroke-width="4" stroke-miterlimit="10" stroke-linecap="round"/>
<path d="M4.03085 221.6L91.456 247.717" stroke="#4D2C5E" stroke-opacity="0.1" stroke-width="4" stroke-miterlimit="10" stroke-linecap="round"/>
<path d="M47.9575 242.244C47.5821 243.499 46.2563 244.215 45.0009 243.839C43.7455 243.464 43.0299 242.138 43.4053 240.883C43.7808 239.627 45.1065 238.911 46.3619 239.287C47.6173 239.662 48.333 240.988 47.9575 242.244Z" fill="#4D2C5E"/>
<path d="M53.1985 252.179L33.5979 246.324L30.9569 255.166L50.5576 261.021L53.1985 252.179Z" stroke="#4D2C5E" stroke-opacity="0.1" stroke-width="4" stroke-miterlimit="10" stroke-linecap="round"/>
<path d="M23.6887 253.501L57.5255 263.609" stroke="#4D2C5E" stroke-opacity="0.1" stroke-width="4" stroke-miterlimit="10" stroke-linecap="round"/>
<path d="M613.28 81.835C634.974 81.835 652.56 73.4989 652.56 63.2159C652.56 52.9328 634.974 44.5967 613.28 44.5967C591.586 44.5967 574 52.9328 574 63.2159C574 73.4989 591.586 81.835 613.28 81.835Z" stroke="#4D2C5E" stroke-opacity="0.1" stroke-width="3" stroke-miterlimit="10" stroke-linecap="round" stroke-linejoin="round"/>
<path d="M629.165 72.9214C640.446 54.3927 642.471 35.0375 633.688 29.6903C624.905 24.3431 608.64 35.0288 597.36 53.5574C586.079 72.086 584.054 91.4412 592.837 96.7884C601.62 102.136 617.884 91.45 629.165 72.9214Z" stroke="#4D2C5E" stroke-opacity="0.1" stroke-width="3" stroke-miterlimit="10" stroke-linecap="round" stroke-linejoin="round"/>
<path d="M633.68 96.7799C642.463 91.4327 640.438 72.0775 629.157 53.5489C617.877 35.0202 601.612 24.3346 592.829 29.6818C584.046 35.029 586.071 54.3842 597.352 72.9128C608.633 91.4414 624.898 102.127 633.68 96.7799Z" stroke="#4D2C5E" stroke-opacity="0.1" stroke-width="3" stroke-miterlimit="10" stroke-linecap="round" stroke-linejoin="round"/>
<path d="M613.28 68.1447C616.002 68.1447 618.209 65.938 618.209 63.2159C618.209 60.4938 616.002 58.2871 613.28 58.2871C610.558 58.2871 608.351 60.4938 608.351 63.2159C608.351 65.938 610.558 68.1447 613.28 68.1447Z" stroke="#4D2C5E" stroke-opacity="0.1" stroke-width="3" stroke-miterlimit="10" stroke-linecap="round" stroke-linejoin="round"/>
<path d="M92.2901 513.642L59.8555 521.129L58.3971 514.807C58.0621 513.342 58.9693 511.883 60.4347 511.541L87.5658 505.275C89.0313 504.94 90.4896 505.847 90.8316 507.313L92.2901 513.642Z" stroke="#4D2C5E" stroke-opacity="0.1" stroke-width="3" stroke-miterlimit="10" stroke-linecap="round"/>
<path d="M81.6291 479.643C95.9255 468.116 98.1704 447.182 86.6434 432.886C75.1163 418.589 54.1822 416.344 39.8858 427.872C25.5894 439.399 23.3446 460.333 34.8716 474.629C46.3987 488.925 67.3327 491.17 81.6291 479.643Z" stroke="#4D2C5E" stroke-opacity="0.1" stroke-width="3" stroke-miterlimit="10"/>
<path d="M76.2333 483.176L45.2223 424.35L41.3494 417.211C21.1337 427.867 13.3879 452.89 24.0436 473.106C34.6992 493.322 59.7229 501.068 79.9387 490.412L76.1496 483.224" stroke="#4D2C5E" stroke-opacity="0.1" stroke-width="3" stroke-miterlimit="10" stroke-linecap="round" stroke-linejoin="round"/>
<path d="M52.057 437.239C62.2096 431.886 68.9143 424.653 67.0323 421.084C65.1504 417.514 55.3945 418.96 45.2419 424.313C35.0893 429.666 28.3846 436.899 30.2666 440.468C32.1486 444.038 41.9045 442.592 52.057 437.239Z" stroke="#4D2C5E" stroke-opacity="0.1" stroke-width="3" stroke-miterlimit="10"/>
<path d="M54.4404 486.406C61.607 487.788 69.2761 486.846 76.2333 483.175C83.1905 479.505 88.3055 473.713 91.2154 467.021C84.0488 465.639 76.3798 466.581 69.4226 470.252C62.4584 473.922 57.3503 479.714 54.4404 486.406Z" stroke="#4D2C5E" stroke-opacity="0.1" stroke-width="3" stroke-miterlimit="10"/>
<path d="M76.2589 483.139C84.3796 478.857 84.0195 462.218 75.4545 445.973C66.8896 429.728 53.3631 420.03 45.2424 424.311C37.1217 428.593 37.4819 445.233 46.0469 461.478C54.6119 477.723 68.1382 487.421 76.2589 483.139Z" stroke="#4D2C5E" stroke-opacity="0.1" stroke-width="3" stroke-miterlimit="10"/>
<path d="M31.3148 469.268L90.1407 438.257" stroke="#4D2C5E" stroke-opacity="0.1" stroke-width="3" stroke-miterlimit="10"/>
<path d="M70.3856 494.033L73.8188 508.352" stroke="#4D2C5E" stroke-opacity="0.1" stroke-width="3" stroke-miterlimit="10"/>
<path d="M55.9617 522.462L97.3073 512.546" stroke="#4D2C5E" stroke-opacity="0.1" stroke-width="3" stroke-miterlimit="10" stroke-linecap="round"/>
<path d="M669.729 404.023L687.034 386.719L639.084 338.769L621.779 356.073L669.729 404.023Z" stroke="#4D2C5E" stroke-opacity="0.1" stroke-width="3" stroke-miterlimit="10" stroke-linecap="round" stroke-linejoin="round"/>
<path d="M691.713 408.705L687.028 386.715L669.723 404.021L691.713 408.705Z" stroke="#4D2C5E" stroke-opacity="0.1" stroke-width="3" stroke-miterlimit="10" stroke-linecap="round" stroke-linejoin="round"/>
<path d="M689.527 398.445L681.445 406.519" stroke="#4D2C5E" stroke-opacity="0.1" stroke-width="3" stroke-miterlimit="10" stroke-linecap="round" stroke-linejoin="round"/>
<path d="M616.68 342.881L625.881 333.68C628.12 331.44 631.746 331.44 633.985 333.68L639.073 338.768L621.768 356.073L616.68 350.985C614.44 348.746 614.44 345.112 616.68 342.881Z" stroke="#4D2C5E" stroke-opacity="0.1" stroke-width="3" stroke-miterlimit="10" stroke-linecap="round" stroke-linejoin="round"/>
<path d="M643.75 343.437L626.444 360.75" stroke="#4D2C5E" stroke-opacity="0.1" stroke-width="3" stroke-miterlimit="10" stroke-linecap="round" stroke-linejoin="round"/>
<path d="M678.376 395.368L635.097 352.097" stroke="#4D2C5E" stroke-opacity="0.1" stroke-width="3" stroke-miterlimit="10" stroke-linecap="round" stroke-linejoin="round"/>
</svg>
