<svg width="102" height="101" viewBox="0 0 102 101" fill="none" xmlns="http://www.w3.org/2000/svg">
<g id="Group">
<g id="Group_2">
<g id="Group_3">
<g id="Group_4">
<g id="Group_5">
<path id="Vector" d="M58.1159 78.8146H48.6487C47.7915 78.8146 47.1032 78.1256 47.1032 77.2676V26.7496C47.1032 25.8916 47.7915 25.2026 48.6487 25.2026H58.1159C58.973 25.2026 59.6613 25.8916 59.6613 26.7496V77.2676C59.6613 78.1256 58.973 78.8146 58.1159 78.8146Z" fill="#9DB9DA"/>
</g>
</g>
</g>
<g id="Group_6">
<g id="Group_7">
<g id="Group_8">
<path id="Vector_2" d="M56.2459 53.8416H50.5317C49.7006 53.8416 49.0123 53.1656 49.0123 52.3206V51.6836C49.0123 50.8516 49.6876 50.1626 50.5317 50.1626H56.2459C57.077 50.1626 57.7653 50.8386 57.7653 51.6836V52.3206C57.7523 53.1656 57.077 53.8416 56.2459 53.8416Z" fill="#A0ADC4"/>
</g>
</g>
</g>
<g id="Group_9">
<g id="Group_10">
<g id="Group_11">
<path id="Vector_3" d="M59.6613 29.5317H47.1032V31.5987H59.6613V29.5317Z" fill="#A0ADC4"/>
</g>
</g>
</g>
<g id="Group_12">
<g id="Group_13">
<g id="Group_14">
<path id="Vector_4" d="M59.6613 33.8608H47.1032V35.9278H59.6613V33.8608Z" fill="#A0ADC4"/>
</g>
</g>
</g>
<g id="Group_15">
<g id="Group_16">
<g id="Group_17">
<path id="Vector_5" d="M59.6613 65.8145H47.1032V67.8815H59.6613V65.8145Z" fill="#A0ADC4"/>
</g>
</g>
</g>
<g id="Group_18">
<g id="Group_19">
<g id="Group_20">
<path id="Vector_6" d="M59.6613 70.1436H47.1032V72.2106H59.6613V70.1436Z" fill="#A0ADC4"/>
</g>
</g>
</g>
</g>
<g id="Group_21">
<g id="Group_22">
<g id="Group_23">
<g id="Group_24">
<path id="Vector_7" d="M34.1685 78.8146H22.3896C22.1818 78.8146 22 78.6456 22 78.4246V25.5926C22 25.3846 22.1688 25.2026 22.3896 25.2026H34.1685C34.3763 25.2026 34.5581 25.3716 34.5581 25.5926V78.4246C34.5581 78.6456 34.3763 78.8146 34.1685 78.8146Z" fill="#B0DFCA"/>
</g>
</g>
</g>
<g id="Group_25">
<g id="Group_26">
<g id="Group_27">
<g id="Group_28">
<path id="Vector_8" d="M31.1296 53.8416H25.4155C24.5844 53.8416 23.8961 53.1656 23.8961 52.3206V51.6836C23.8961 50.8516 24.5714 50.1626 25.4155 50.1626H31.1296C31.9608 50.1626 32.6491 50.8386 32.6491 51.6836V52.3206C32.6491 53.1656 31.9608 53.8416 31.1296 53.8416Z" fill="#217C58"/>
</g>
</g>
</g>
</g>
<g id="Group_29">
<g id="Group_30">
<g id="Group_31">
<g id="Group_32">
<path id="Vector_9" d="M34.5581 29.5317H22V31.5987H34.5581V29.5317Z" fill="#217C58"/>
</g>
</g>
</g>
</g>
<g id="Group_33">
<g id="Group_34">
<g id="Group_35">
<g id="Group_36">
<path id="Vector_10" d="M34.5581 33.8608H22V35.9278H34.5581V33.8608Z" fill="#217C58"/>
</g>
</g>
</g>
</g>
<g id="Group_37">
<g id="Group_38">
<g id="Group_39">
<g id="Group_40">
<path id="Vector_11" d="M34.5581 65.8145H22V67.8815H34.5581V65.8145Z" fill="#217C58"/>
</g>
</g>
</g>
</g>
<g id="Group_41">
<g id="Group_42">
<g id="Group_43">
<g id="Group_44">
<path id="Vector_12" d="M34.5581 70.1436H22V72.2106H34.5581V70.1436Z" fill="#217C58"/>
</g>
</g>
</g>
</g>
</g>
<g id="Group_45">
<g id="Group_46">
<g id="Group_47">
<g id="Group_48">
<path id="Vector_13" d="M45.5578 78.8146H36.0905C35.2334 78.8146 34.5451 78.1256 34.5451 77.2676V26.7496C34.5451 25.8916 35.2334 25.2026 36.0905 25.2026H45.5578C46.4149 25.2026 47.1032 25.8916 47.1032 26.7496V77.2676C47.1032 78.1256 46.4149 78.8146 45.5578 78.8146Z" fill="#E0BDBC"/>
</g>
</g>
</g>
<g id="Group_49">
<g id="Group_50">
<g id="Group_51">
<path id="Vector_14" d="M43.6878 53.8416H37.9736C37.1425 53.8416 36.4542 53.1656 36.4542 52.3206V51.6836C36.4542 50.8516 37.1295 50.1626 37.9736 50.1626H43.6878C44.5189 50.1626 45.2072 50.8386 45.2072 51.6836V52.3206C45.2072 53.1656 44.5189 53.8416 43.6878 53.8416Z" fill="#A92F4B"/>
</g>
</g>
</g>
<g id="Group_52">
<g id="Group_53">
<g id="Group_54">
<path id="Vector_15" d="M47.1162 29.5317H34.5581V31.5987H47.1162V29.5317Z" fill="#A92F4B"/>
</g>
</g>
</g>
<g id="Group_55">
<g id="Group_56">
<g id="Group_57">
<path id="Vector_16" d="M47.1162 33.8608H34.5581V35.9278H47.1162V33.8608Z" fill="#A92F4B"/>
</g>
</g>
</g>
<g id="Group_58">
<g id="Group_59">
<g id="Group_60">
<path id="Vector_17" d="M47.1162 65.8145H34.5581V67.8815H47.1162V65.8145Z" fill="#A92F4B"/>
</g>
</g>
</g>
<g id="Group_61">
<g id="Group_62">
<g id="Group_63">
<path id="Vector_18" d="M47.1162 70.1436H34.5581V72.2106H47.1162V70.1436Z" fill="#A92F4B"/>
</g>
</g>
</g>
</g>
<g id="Group_64">
<g id="Group_65">
<g id="Group_66">
<g id="Group_67">
<path id="Vector_19" d="M80.0634 76.9294L68.4274 78.8014C68.2196 78.8404 68.0118 78.6974 67.9858 78.4764L59.5834 26.3204C59.5445 26.1124 59.6873 25.9044 59.9081 25.8784L71.5442 24.0064C71.7519 23.9674 71.9597 24.1104 71.9857 24.3314L80.3881 76.4874C80.414 76.6954 80.2712 76.8904 80.0634 76.9294Z" fill="#FAAF3A"/>
</g>
</g>
</g>
<g id="Group_68">
<g id="Group_69">
<g id="Group_70">
<g id="Group_71">
<path id="Vector_20" d="M74.2584 52.5676L66.2975 53.8546C66.1157 53.8806 65.9469 53.7636 65.9079 53.5816L65.4274 50.6176C65.4014 50.4356 65.5183 50.2666 65.7001 50.2276L73.661 48.9406C73.8428 48.9146 74.0116 49.0316 74.0506 49.2136L74.5311 52.1776C74.5571 52.3596 74.4402 52.5416 74.2584 52.5676Z" fill="#C77E2E"/>
</g>
</g>
</g>
</g>
<g id="Group_72">
<g id="Group_73">
<g id="Group_74">
<g id="Group_75">
<path id="Vector_21" d="M72.6243 28.2087L60.2257 30.21L60.5544 32.2507L72.953 30.2494L72.6243 28.2087Z" fill="#C77E2E"/>
</g>
</g>
</g>
</g>
<g id="Group_76">
<g id="Group_77">
<g id="Group_78">
<g id="Group_79">
<path id="Vector_22" d="M73.3133 32.4855L60.9147 34.4868L61.2434 36.5276L73.642 34.5263L73.3133 32.4855Z" fill="#C77E2E"/>
</g>
</g>
</g>
</g>
<g id="Group_80">
<g id="Group_81">
<g id="Group_82">
<g id="Group_83">
<path id="Vector_23" d="M78.3901 64.027L65.9915 66.0283L66.3202 68.0691L78.7188 66.0678L78.3901 64.027Z" fill="#C77E2E"/>
</g>
</g>
</g>
</g>
<g id="Group_84">
<g id="Group_85">
<g id="Group_86">
<g id="Group_87">
<path id="Vector_24" d="M79.0831 68.3005L66.6845 70.3018L67.0132 72.3425L79.4118 70.3412L79.0831 68.3005Z" fill="#C77E2E"/>
</g>
</g>
</g>
</g>
</g>
</g>
</svg>
