<svg width="54" height="67" viewBox="0 0 54 67" fill="none" xmlns="http://www.w3.org/2000/svg">
<g id="Group">
<g id="Group_2">
<path id="Vector" d="M0.00012207 48.9503L6.04716 65.8468C6.26088 66.4502 6.93975 66.8399 7.56834 66.7268L25.2192 63.5084L29.2924 56.4556L4.07338 41.8975L0.00012207 48.9503Z" fill="#D4A18C"/>
<path id="Vector_2" d="M10.9123 59.1583C8.68711 57.876 5.98417 57.9765 3.64581 59.1834L6.03445 65.8591C6.24817 66.4625 6.92707 66.8522 7.55567 66.7391L14.5204 65.4693C14.4073 62.8293 13.1501 60.4406 10.9123 59.1583Z" fill="#000A12"/>
<path id="Vector_3" d="M10.4599 47.7306L0.00012207 48.95L21.9631 10.9077L29.2799 15.1319L10.4599 47.7306Z" fill="#FAF5F2"/>
<path id="Vector_4" d="M21.0454 53.8404L12.6097 56.2291L10.46 47.7305L29.28 15.1318L39.8654 21.2417L21.0454 53.8404Z" fill="#FBFAFA"/>
<path id="Vector_5" d="M25.2191 63.5207L21.0453 53.8404L39.8653 21.2417L47.1821 25.4658L25.2191 63.5207Z" fill="#FCF1EC"/>
<path id="Vector_6" d="M24.0588 7.24719L21.9468 10.9053L47.1724 25.4697L49.2845 21.8116L24.0588 7.24719Z" fill="#D1DCE4"/>
<path id="Vector_7" d="M51.8336 12.3787L30.9644 0.334856C29.7575 -0.356594 28.2237 0.0582707 27.5323 1.25259L24.0624 7.26192L49.2815 21.8201L52.7513 15.8107C53.4553 14.6164 53.0405 13.0701 51.8336 12.3787Z" fill="#000A12"/>
</g>
</g>
</svg>
