<svg width="49" height="60" viewBox="0 0 49 60" fill="none" xmlns="http://www.w3.org/2000/svg">
<g id="Group 14">
<ellipse id="Ellipse 86" cx="23.5754" cy="58.5476" rx="13.0311" ry="0.847889" fill="#2354CE"/>
<g id="Group 8">
<g id="&#230;&#137;&#139;02" filter="url(#filter0_i_30_3966)">
<path d="M1.83275 31.339C5.14218 24.6223 8.83008 31.1268 10.9577 33.4356C11.6125 34.2132 12.9474 35.8565 13.0486 36.2094L5.83635 39.8131C5.72879 39.3275 5.93561 39.4379 3.32342 37.4102C1.23367 35.7881 1.10214 32.8218 1.83275 31.339Z" fill="#FEF7F7"/>
</g>
<path id="&#232;&#162;&#150;&#229;&#173;&#144;01" d="M8.86544 31.4175C9.84306 31.8715 11.6263 33.8973 12.2315 34.9703L16.614 37.0428L13.7057 43.5563C9.5093 42.0671 5.70432 40.3629 3.88255 37.8788L8.86544 31.4175Z" fill="url(#paint0_linear_30_3966)"/>
<path id="&#232;&#163;&#133;&#233;&#165;&#176;" d="M4.11706 37.7509C5.39602 36.0962 8.67357 31.7447 8.85178 31.1633" stroke="#83A6FF" stroke-width="1.21756" stroke-linecap="round"/>
</g>
<g id="Group 12">
<g id="&#230;&#137;&#139;01" filter="url(#filter1_i_30_3966)">
<path d="M38.2433 47.3164C44.3482 45.2063 39.2812 40.094 36.9075 38.039C36.11 37.4086 34.4261 36.1254 34.0702 36.0351L30.6919 43.3557C31.1807 43.4481 31.0639 43.2448 33.1716 45.7929C34.8577 47.8313 37.2553 47.6579 38.2433 47.3164Z" fill="#FEF7F7"/>
</g>
<path id="&#232;&#162;&#150;&#229;&#173;&#144;02" d="M39.1283 40.1582C38.6442 39.1951 36.514 37.4965 35.4227 36.925L30.8234 37.615L33.0633 44.7793L39.1283 40.1582Z" fill="url(#paint1_linear_30_3966)"/>
<path id="&#232;&#163;&#133;&#233;&#165;&#176;_2" d="M33.8114 44.3465C35.4257 43.0169 38.7983 40.3085 39.3739 40.1124" stroke="#83A6FF" stroke-width="1.21756" stroke-linecap="round"/>
</g>
<g id="&#232;&#186;&#171;&#229;&#173;&#144;" filter="url(#filter2_i_30_3966)">
<path d="M23.9041 54.8632V50.8136H22.9512V54.8632C23.427 55.8534 22.9827 56.5874 22.546 56.9328C22.3584 57.1769 21.2335 57.6649 18.2348 57.6649C15.2362 57.6649 14.5176 57.403 14.0095 56.6994C12.9291 55.2035 10.0836 49.9121 10.6082 43.426C11.0605 37.8329 12.3136 36.8097 13.7325 35.4749C15.926 33.4111 32.0862 33.2734 33.5481 35.4749C34.3076 36.6185 35.6094 40.7356 35.9074 43.426C36.7386 51.0415 32.9892 56.816 32.598 57.4185L32.5895 57.4315C32.2481 57.9578 31.6119 58.3279 28.2571 58.397C25.5732 58.4523 24.377 57.9825 23.9807 57.6649C23.1114 56.7956 23.5289 55.4876 23.9041 54.8632Z" fill="#FEF7F7"/>
</g>
<path id="&#232;&#161;&#163;&#230;&#156;&#141;" d="M10.8175 48.279C9.35708 40.7335 12.0332 36.7049 13.552 35.6626H33.4469C35.9995 37.7966 36.2798 44.9626 35.9184 48.279H10.8175Z" fill="url(#paint2_linear_30_3966)"/>
<path id="Vector 90" d="M25.3456 40.7906L24.8837 38.47H23.2208V45.3972L24.6082 41.599L24.0834 41.2303L25.3456 40.7906Z" fill="#282828"/>
<path id="Vector 91" d="M21.0959 40.7906L21.5578 38.47H23.2208V45.3972L21.8334 41.599L22.3581 41.2303L21.0959 40.7906Z" fill="#282828"/>
<path id="Vector 85" d="M23.2532 42.0258L21.4081 37.9038H25.1635L23.2532 42.0258Z" fill="#FEF7F7"/>
<path id="Vector 86" d="M23.2422 46.5235L24.4515 48.2791H21.99L23.2422 46.5235Z" fill="#FEF7F7"/>
<g id="&#229;&#164;&#180;">
<path id="&#230;&#138;&#149;&#229;&#189;&#177;" d="M25.7297 40.4536C19.5388 40.1149 14.9403 36.5381 13.5284 35.7195C17.6128 31.1576 33.4119 35.2739 36.2878 33.6873C36.2878 39.8455 34.7998 40.9498 25.7297 40.4536Z" fill="#2B2B2B" fill-opacity="0.2"/>
<g id="&#232;&#128;&#179;&#230;&#156;&#181;">
<g id="&#232;&#128;&#179;&#230;&#156;&#181;01">
<ellipse id="Ellipse 2" cx="13.7494" cy="10.8839" rx="3.8871" ry="4.66434" transform="rotate(1.4899 13.7494 10.8839)" fill="#FEF7F7"/>
<ellipse id="Ellipse 3" cx="13.3144" cy="9.81186" rx="1.4547" ry="1.74557" transform="rotate(1.4899 13.3144 9.81186)" fill="#FFF1C6"/>
</g>
<g id="&#232;&#128;&#179;&#230;&#156;&#181;02">
<path id="Ellipse 4" d="M38.821 15.5206C38.1028 17.9945 39.1412 20.4705 41.1403 21.0508C41.6972 21.2125 45.3421 20.0961 46.0603 17.6222C46.7785 15.1483 45.7401 12.6724 43.741 12.092C41.7419 11.5117 39.5392 13.0467 38.821 15.5206Z" fill="#E5EDFF"/>
<ellipse id="Ellipse 5" cx="1.4547" cy="1.74557" rx="1.4547" ry="1.74557" transform="matrix(-0.960352 -0.278792 -0.278792 0.960352 45.1776 14.4441)" fill="#E9DEBD"/>
</g>
</g>
<g id="&#229;&#164;&#180;_2" filter="url(#filter3_i_30_3966)">
<path fill-rule="evenodd" clip-rule="evenodd" d="M28.2412 6.67572C30.1628 6.36764 32.8764 5.67881 35.3813 4.33179C35.9413 4.1311 37.0523 4.06465 37.017 5.40442C36.987 6.54093 36.3052 7.74204 35.2469 8.73521C44.2399 13.0077 46.5263 22.1329 45.3934 29.4185C44.0164 38.2734 34.2539 40.4581 23.483 38.7832C12.7121 37.1082 4.05317 31.5788 5.43015 22.7239C6.79922 13.9199 15.1172 4.38168 28.2412 6.67572Z" fill="#FEF7F7"/>
</g>
<g id="&#231;&#156;&#188;&#231;&#157;&#155;">
<circle id="&#231;&#156;&#188;&#233;&#187;&#145;01" cx="18.4904" cy="20.6514" r="4.15352" transform="rotate(8.83901 18.4904 20.6514)" fill="#1D1D1D"/>
<circle id="&#231;&#156;&#188;&#233;&#187;&#145;02" cx="32.3954" cy="22.8721" r="4.15352" transform="rotate(8.83901 32.3954 22.8721)" fill="#1D1D1D"/>
<circle id="&#233;&#171;&#152;&#229;&#133;&#137;" cx="21.1707" cy="17.5545" r="0.713638" transform="rotate(23.839 21.1707 17.5545)" fill="#FEF7F7"/>
<circle id="&#233;&#171;&#152;&#229;&#133;&#137;_2" cx="34.817" cy="19.4483" r="0.831211" transform="rotate(23.839 34.817 19.4483)" fill="#FEF7F7"/>
</g>
<g id="&#231;&#156;&#188;&#233;&#149;&#156;">
<g id="Line 1" filter="url(#filter4_i_30_3966)">
<line x1="23.8675" y1="21.2393" x2="27.3349" y2="21.7786" stroke="#303030" stroke-width="1.19961"/>
</g>
<g id="Ellipse 10" filter="url(#filter5_di_30_3966)">
<path d="M39.8549 23.1949C39.3045 26.7341 35.9893 29.157 32.4502 28.6067C28.911 28.0563 26.4881 24.7411 27.0385 21.2019C27.5888 17.6628 30.3618 17.6347 33.901 18.1851C37.4401 18.7355 40.4053 19.6558 39.8549 23.1949Z" fill="#1C1C1C"/>
</g>
<g id="Ellipse 11" filter="url(#filter6_di_30_3966)">
<path d="M24.2459 21.101C23.7107 24.5422 20.4873 26.898 17.0461 26.3629C13.6049 25.8278 11.249 22.6043 11.7842 19.1631C12.3193 15.7219 15.3994 15.3367 18.8406 15.8719C22.2818 16.407 24.781 17.6598 24.2459 21.101Z" fill="#1C1C1C"/>
</g>
</g>
<g id="&#233;&#188;&#187;&#229;&#173;&#144;">
<ellipse id="Ellipse 76" cx="25.2095" cy="26.2106" rx="1.878" ry="1.15569" transform="rotate(8.83901 25.2095 26.2106)" fill="#1F1F1F"/>
<ellipse id="Ellipse 77" cx="24.2509" cy="25.6657" rx="0.472188" ry="0.314792" transform="rotate(-14.4317 24.2509 25.6657)" fill="#FEF7F7"/>
</g>
<g id="&#229;&#152;&#180;">
<path id="Vector 75" d="M27.3742 30.7099L21.1543 29.2329C20.7618 31.0112 20.5772 33.521 23.6884 34.1045C26.1774 34.5714 27.1827 32.036 27.3742 30.7099Z" fill="#F44D3D"/>
<path id="Intersect" fill-rule="evenodd" clip-rule="evenodd" d="M26.1459 33.3512C25.4474 32.9397 24.5592 32.5851 23.5652 32.3506C22.6851 32.1429 21.8371 32.0564 21.0929 32.0781C21.4199 33.1845 22.2728 33.6881 23.3143 34.0406C24.5036 34.4432 25.4601 34.0358 26.1459 33.3512Z" fill="#FC6D5C"/>
<path id="Vector 76" d="M25.0254 30.9636L23.1572 30.4878C22.7171 30.3756 22.411 29.9766 22.4167 29.5225L26.485 30.5016C26.126 30.9208 25.5602 31.0999 25.0254 30.9636Z" fill="#FEF7F7"/>
</g>
</g>
</g>
<defs>
<filter id="filter0_i_30_3966" x="-1.00571" y="25.9465" width="14.0543" height="13.8665" filterUnits="userSpaceOnUse" color-interpolation-filters="sRGB">
<feFlood flood-opacity="0" result="BackgroundImageFix"/>
<feBlend mode="normal" in="SourceGraphic" in2="BackgroundImageFix" result="shape"/>
<feColorMatrix in="SourceAlpha" type="matrix" values="0 0 0 0 0 0 0 0 0 0 0 0 0 0 0 0 0 0 127 0" result="hardAlpha"/>
<feOffset dx="-2.43512" dy="-2.43512"/>
<feGaussianBlur stdDeviation="1.82634"/>
<feComposite in2="hardAlpha" operator="arithmetic" k2="-1" k3="1"/>
<feColorMatrix type="matrix" values="0 0 0 0 0.803922 0 0 0 0 0.870588 0 0 0 0 1 0 0 0 1 0"/>
<feBlend mode="normal" in2="shape" result="effect1_innerShadow_30_3966"/>
</filter>
<filter id="filter1_i_30_3966" x="30.0832" y="33.6" width="11.0591" height="13.9261" filterUnits="userSpaceOnUse" color-interpolation-filters="sRGB">
<feFlood flood-opacity="0" result="BackgroundImageFix"/>
<feBlend mode="normal" in="SourceGraphic" in2="BackgroundImageFix" result="shape"/>
<feColorMatrix in="SourceAlpha" type="matrix" values="0 0 0 0 0 0 0 0 0 0 0 0 0 0 0 0 0 0 127 0" result="hardAlpha"/>
<feOffset dx="-0.60878" dy="-2.43512"/>
<feGaussianBlur stdDeviation="1.82634"/>
<feComposite in2="hardAlpha" operator="arithmetic" k2="-1" k3="1"/>
<feColorMatrix type="matrix" values="0 0 0 0 0.803922 0 0 0 0 0.870588 0 0 0 0 1 0 0 0 1 0"/>
<feBlend mode="normal" in2="shape" result="effect1_innerShadow_30_3966"/>
</filter>
<filter id="filter2_i_30_3966" x="9.9355" y="32.9618" width="26.0918" height="25.4398" filterUnits="userSpaceOnUse" color-interpolation-filters="sRGB">
<feFlood flood-opacity="0" result="BackgroundImageFix"/>
<feBlend mode="normal" in="SourceGraphic" in2="BackgroundImageFix" result="shape"/>
<feColorMatrix in="SourceAlpha" type="matrix" values="0 0 0 0 0 0 0 0 0 0 0 0 0 0 0 0 0 0 127 0" result="hardAlpha"/>
<feOffset dx="-0.60878" dy="-0.91317"/>
<feGaussianBlur stdDeviation="1.82634"/>
<feComposite in2="hardAlpha" operator="arithmetic" k2="-1" k3="1"/>
<feColorMatrix type="matrix" values="0 0 0 0 0.803922 0 0 0 0 0.870588 0 0 0 0 1 0 0 0 1 0"/>
<feBlend mode="normal" in2="shape" result="effect1_innerShadow_30_3966"/>
</filter>
<filter id="filter3_i_30_3966" x="2.88657" y="1.82245" width="42.775" height="37.48" filterUnits="userSpaceOnUse" color-interpolation-filters="sRGB">
<feFlood flood-opacity="0" result="BackgroundImageFix"/>
<feBlend mode="normal" in="SourceGraphic" in2="BackgroundImageFix" result="shape"/>
<feColorMatrix in="SourceAlpha" type="matrix" values="0 0 0 0 0 0 0 0 0 0 0 0 0 0 0 0 0 0 127 0" result="hardAlpha"/>
<feOffset dx="-2.39923" dy="-2.39923"/>
<feGaussianBlur stdDeviation="1.99936"/>
<feComposite in2="hardAlpha" operator="arithmetic" k2="-1" k3="1"/>
<feColorMatrix type="matrix" values="0 0 0 0 0.803271 0 0 0 0 0.868847 0 0 0 0 1 0 0 0 1 0"/>
<feBlend mode="normal" in2="shape" result="effect1_innerShadow_30_3966"/>
</filter>
<filter id="filter4_i_30_3966" x="23.7754" y="20.6467" width="3.65176" height="2.12448" filterUnits="userSpaceOnUse" color-interpolation-filters="sRGB">
<feFlood flood-opacity="0" result="BackgroundImageFix"/>
<feBlend mode="normal" in="SourceGraphic" in2="BackgroundImageFix" result="shape"/>
<feColorMatrix in="SourceAlpha" type="matrix" values="0 0 0 0 0 0 0 0 0 0 0 0 0 0 0 0 0 0 127 0" result="hardAlpha"/>
<feOffset dy="0.399871"/>
<feGaussianBlur stdDeviation="0.199936"/>
<feComposite in2="hardAlpha" operator="arithmetic" k2="-1" k3="1"/>
<feColorMatrix type="matrix" values="0 0 0 0 0.155615 0 0 0 0 0.155615 0 0 0 0 0.155615 0 0 0 1 0"/>
<feBlend mode="normal" in2="shape" result="effect1_innerShadow_30_3966"/>
</filter>
<filter id="filter5_di_30_3966" x="26.5606" y="17.1234" width="16.1595" height="13.9604" filterUnits="userSpaceOnUse" color-interpolation-filters="sRGB">
<feFlood flood-opacity="0" result="BackgroundImageFix"/>
<feColorMatrix in="SourceAlpha" type="matrix" values="0 0 0 0 0 0 0 0 0 0 0 0 0 0 0 0 0 0 127 0" result="hardAlpha"/>
<feOffset dx="1.19961" dy="0.799743"/>
<feGaussianBlur stdDeviation="0.799743"/>
<feComposite in2="hardAlpha" operator="out"/>
<feColorMatrix type="matrix" values="0 0 0 0 0 0 0 0 0 0 0 0 0 0 0 0 0 0 0.15 0"/>
<feBlend mode="normal" in2="BackgroundImageFix" result="effect1_dropShadow_30_3966"/>
<feBlend mode="normal" in="SourceGraphic" in2="effect1_dropShadow_30_3966" result="shape"/>
<feColorMatrix in="SourceAlpha" type="matrix" values="0 0 0 0 0 0 0 0 0 0 0 0 0 0 0 0 0 0 127 0" result="hardAlpha"/>
<feOffset dy="0.799743"/>
<feGaussianBlur stdDeviation="0.399871"/>
<feComposite in2="hardAlpha" operator="arithmetic" k2="-1" k3="1"/>
<feColorMatrix type="matrix" values="0 0 0 0 0.279574 0 0 0 0 0.279574 0 0 0 0 0.279574 0 0 0 1 0"/>
<feBlend mode="normal" in2="shape" result="effect2_innerShadow_30_3966"/>
</filter>
<filter id="filter6_di_30_3966" x="11.3085" y="14.8748" width="15.8087" height="13.9631" filterUnits="userSpaceOnUse" color-interpolation-filters="sRGB">
<feFlood flood-opacity="0" result="BackgroundImageFix"/>
<feColorMatrix in="SourceAlpha" type="matrix" values="0 0 0 0 0 0 0 0 0 0 0 0 0 0 0 0 0 0 127 0" result="hardAlpha"/>
<feOffset dx="1.19961" dy="0.799743"/>
<feGaussianBlur stdDeviation="0.799743"/>
<feComposite in2="hardAlpha" operator="out"/>
<feColorMatrix type="matrix" values="0 0 0 0 0 0 0 0 0 0 0 0 0 0 0 0 0 0 0.15 0"/>
<feBlend mode="normal" in2="BackgroundImageFix" result="effect1_dropShadow_30_3966"/>
<feBlend mode="normal" in="SourceGraphic" in2="effect1_dropShadow_30_3966" result="shape"/>
<feColorMatrix in="SourceAlpha" type="matrix" values="0 0 0 0 0 0 0 0 0 0 0 0 0 0 0 0 0 0 127 0" result="hardAlpha"/>
<feOffset dy="0.799743"/>
<feGaussianBlur stdDeviation="0.399871"/>
<feComposite in2="hardAlpha" operator="arithmetic" k2="-1" k3="1"/>
<feColorMatrix type="matrix" values="0 0 0 0 0.252669 0 0 0 0 0.252669 0 0 0 0 0.252669 0 0 0 1 0"/>
<feBlend mode="normal" in2="shape" result="effect2_innerShadow_30_3966"/>
</filter>
<linearGradient id="paint0_linear_30_3966" x1="9.17993" y1="32.6245" x2="9.63865" y2="41.7988" gradientUnits="userSpaceOnUse">
<stop stop-color="#585858"/>
<stop offset="1" stop-color="#161616"/>
</linearGradient>
<linearGradient id="paint1_linear_30_3966" x1="37.6355" y1="38.5618" x2="32.9648" y2="41.3973" gradientUnits="userSpaceOnUse">
<stop stop-color="#4C4C4C"/>
<stop offset="0.633503" stop-color="#151515"/>
</linearGradient>
<linearGradient id="paint2_linear_30_3966" x1="23.1797" y1="35.7204" x2="23.1797" y2="48.279" gradientUnits="userSpaceOnUse">
<stop stop-color="#434343"/>
<stop offset="1" stop-color="#262626"/>
</linearGradient>
</defs>
</svg>
