<svg width="93" height="93" viewBox="0 0 93 93" fill="none" xmlns="http://www.w3.org/2000/svg">
<rect x="0.5" y="0.628174" width="92.446" height="91.5396" rx="20.8457" fill="#2C2F5E"/>
<path d="M53.1726 72.0605H44.5921C43.8152 72.0605 43.1914 71.4361 43.1914 70.6585V24.8723C43.1914 24.0947 43.8152 23.4702 44.5921 23.4702H53.1726C53.9494 23.4702 54.5732 24.0947 54.5732 24.8723V70.6585C54.5732 71.4361 53.9494 72.0605 53.1726 72.0605Z" fill="#9DB9DA"/>
<path d="M51.4779 49.4258H46.299C45.5457 49.4258 44.9219 48.8132 44.9219 48.0473V47.47C44.9219 46.7159 45.5339 46.0914 46.299 46.0914H51.4779C52.2312 46.0914 52.855 46.7041 52.855 47.47V48.0473C52.8432 48.8132 52.2312 49.4258 51.4779 49.4258Z" fill="#A0ADC4"/>
<path d="M54.5732 27.3938H43.1914V29.2672H54.5732V27.3938Z" fill="#A0ADC4"/>
<path d="M54.5732 31.3174H43.1914V33.1908H54.5732V31.3174Z" fill="#A0ADC4"/>
<path d="M54.5732 60.278H43.1914V62.1514H54.5732V60.278Z" fill="#A0ADC4"/>
<path d="M54.5732 64.2017H43.1914V66.0751H54.5732V64.2017Z" fill="#A0ADC4"/>
<path d="M31.4662 72.0596H20.7906C20.6023 72.0596 20.4375 71.9064 20.4375 71.7061V23.8227C20.4375 23.6342 20.5905 23.4692 20.7906 23.4692H31.4662C31.6545 23.4692 31.8193 23.6224 31.8193 23.8227V71.7061C31.8193 71.9064 31.6545 72.0596 31.4662 72.0596Z" fill="#B0DFCA"/>
<path d="M28.7123 49.4253H23.5334C22.7801 49.4253 22.1562 48.8127 22.1562 48.0468V47.4695C22.1562 46.7154 22.7683 46.0909 23.5334 46.0909H28.7123C29.4656 46.0909 30.0894 46.7036 30.0894 47.4695V48.0468C30.0894 48.8127 29.4656 49.4253 28.7123 49.4253Z" fill="#217C58"/>
<path d="M31.8193 27.3937H20.4375V29.2671H31.8193V27.3937Z" fill="#217C58"/>
<path d="M31.8193 31.3164H20.4375V33.1898H31.8193V31.3164Z" fill="#217C58"/>
<path d="M31.8193 60.2777H20.4375V62.1511H31.8193V60.2777Z" fill="#217C58"/>
<path d="M31.8193 64.2004H20.4375V66.0738H31.8193V64.2004Z" fill="#217C58"/>
<path d="M41.7937 72.0596H33.2132C32.4363 72.0596 31.8125 71.4351 31.8125 70.6575V24.8713C31.8125 24.0937 32.4363 23.4692 33.2132 23.4692H41.7937C42.5705 23.4692 43.1943 24.0937 43.1943 24.8713V70.6575C43.1943 71.4351 42.5705 72.0596 41.7937 72.0596Z" fill="#E0BDBC"/>
<path d="M40.099 49.4263H34.9201C34.1668 49.4263 33.543 48.8136 33.543 48.0478V47.4704C33.543 46.7164 34.155 46.0919 34.9201 46.0919H40.099C40.8523 46.0919 41.4761 46.7046 41.4761 47.4704V48.0478C41.4761 48.8136 40.8523 49.4263 40.099 49.4263Z" fill="#A92F4B"/>
<path d="M43.2061 27.3934H31.8242V29.2668H43.2061V27.3934Z" fill="#A92F4B"/>
<path d="M43.2061 31.3171H31.8242V33.1905H43.2061V31.3171Z" fill="#A92F4B"/>
<path d="M43.2061 60.2777H31.8242V62.1511H43.2061V60.2777Z" fill="#A92F4B"/>
<path d="M43.2061 64.2013H31.8242V66.0747H43.2061V64.2013Z" fill="#A92F4B"/>
<path d="M73.0675 70.3523L62.5213 72.0489C62.333 72.0843 62.1447 71.9547 62.1211 71.7544L54.5058 24.4837C54.4705 24.2952 54.6 24.1066 54.8001 24.0831L65.3462 22.3864C65.5345 22.3511 65.7228 22.4807 65.7464 22.681L73.3617 69.9517C73.3853 70.1402 73.2558 70.3169 73.0675 70.3523Z" fill="#FAAF3A"/>
<path d="M67.8039 48.2713L60.5887 49.4377C60.424 49.4613 60.2709 49.3552 60.2356 49.1903L59.8001 46.5039C59.7766 46.339 59.8825 46.1858 60.0473 46.1504L67.2625 44.984C67.4273 44.9604 67.5803 45.0665 67.6156 45.2314L68.0511 47.9178C68.0746 48.0827 67.9687 48.2477 67.8039 48.2713Z" fill="#C77E2E"/>
<path d="M66.3232 26.1947L55.0859 28.0085L55.3839 29.8582L66.6212 28.0443L66.3232 26.1947Z" fill="#C77E2E"/>
<path d="M66.9482 30.0707L55.7109 31.8845L56.0089 33.7341L67.2462 31.9203L66.9482 30.0707Z" fill="#C77E2E"/>
<path d="M71.5498 58.658L60.3125 60.4718L60.6104 62.3214L71.8477 60.5075L71.5498 58.658Z" fill="#C77E2E"/>
<path d="M72.1748 62.5315L60.9375 64.3453L61.2354 66.1949L72.4727 64.3811L72.1748 62.5315Z" fill="#C77E2E"/>
</svg>
