<svg width="94" height="93" viewBox="0 0 94 93" fill="none" xmlns="http://www.w3.org/2000/svg">
<rect x="0.558594" y="0.76001" width="92.82" height="91.91" rx="20.93" fill="#4D2C5E"/>
<g clip-path="url(#clip0_2047_6398)">
<path d="M63.1294 30.0667H50.4628C50.285 30.0667 50.1294 30.1556 49.9961 30.3333C49.8628 30.5111 49.7961 30.7111 49.7961 30.9333C49.7961 31.1556 49.8628 31.3333 49.9961 31.4667C50.1294 31.6 50.285 31.6667 50.4628 31.6667H63.1294C63.7517 31.6667 64.285 31.8889 64.7294 32.3333C65.1739 32.7778 65.3961 33.3556 65.3961 34.0667V53H28.5961V34.0667C28.5961 33.3556 28.8183 32.7778 29.2628 32.3333C29.7072 31.8889 30.2405 31.6667 30.8628 31.6667H43.5294C43.7072 31.6667 43.885 31.6 44.0628 31.4667C44.2405 31.3333 44.3294 31.1556 44.3294 30.9333C44.3294 30.7111 44.2405 30.5111 44.0628 30.3333C43.885 30.1556 43.7072 30.0667 43.5294 30.0667H30.8628C29.7961 30.0667 28.885 30.4667 28.1294 31.2667C27.3739 32.0667 26.9961 33 26.9961 34.0667V59.9333C26.9961 61 27.3739 61.9333 28.1294 62.7333C28.885 63.5333 29.7961 63.9333 30.8628 63.9333H63.1294C64.1961 63.9333 65.1072 63.5333 65.8628 62.7333C66.6183 61.9333 66.9961 61 66.9961 59.9333V34.0667C66.9961 33 66.6183 32.0667 65.8628 31.2667C65.1072 30.4667 64.1961 30.0667 63.1294 30.0667ZM63.1294 62.3333H30.8628C30.2405 62.3333 29.7072 62.1111 29.2628 61.6667C28.8183 61.2222 28.5961 60.6445 28.5961 59.9333V54.4667H65.3961V59.9333C65.3961 60.6445 65.1739 61.2222 64.7294 61.6667C64.285 62.1111 63.7517 62.3333 63.1294 62.3333ZM34.8628 56.0667C34.1516 56.0667 33.5739 56.2889 33.1294 56.7333C32.685 57.1778 32.4628 57.7333 32.4628 58.4C32.4628 59.0667 32.685 59.6222 33.1294 60.0667C33.5739 60.5111 34.1294 60.7333 34.7961 60.7333C35.4628 60.7333 36.0183 60.5111 36.4628 60.0667C36.9072 59.6222 37.1294 59.0667 37.1294 58.4C37.1294 57.7333 36.9072 57.1778 36.4628 56.7333C36.0183 56.2889 35.485 56.0667 34.8628 56.0667ZM34.8628 59.1333C34.5961 59.1333 34.3961 59.0667 34.2628 58.9333C34.1294 58.8 34.0628 58.6222 34.0628 58.4C34.0628 58.1778 34.1294 58 34.2628 57.8667C34.3961 57.7333 34.5739 57.6667 34.7961 57.6667C35.0183 57.6667 35.1961 57.7333 35.3294 57.8667C35.4628 58 35.5294 58.1778 35.5294 58.4C35.5294 58.6222 35.4628 58.8 35.3294 58.9333C35.1961 59.0667 35.0405 59.1333 34.8628 59.1333ZM60.7294 57.6667H41.2628C41.085 57.6667 40.9072 57.7333 40.7294 57.8667C40.5517 58 40.4628 58.1778 40.4628 58.4C40.4628 58.6222 40.5517 58.8 40.7294 58.9333C40.9072 59.0667 41.085 59.1333 41.2628 59.1333H60.7294C60.9961 59.1333 61.1961 59.0667 61.3294 58.9333C61.4628 58.8 61.5294 58.6222 61.5294 58.4C61.5294 58.1778 61.4628 58 61.3294 57.8667C61.1961 57.7333 60.9961 57.6667 60.7294 57.6667ZM42.9961 39.9333V44.7333C42.9961 45.5333 43.3517 46.1556 44.0628 46.6C44.4183 46.7778 44.7961 46.8667 45.1961 46.8667C45.5961 46.8667 45.9739 46.7778 46.3294 46.6L50.4628 44.2C51.1739 43.7556 51.5294 43.1111 51.5294 42.2667C51.5294 41.4222 51.1739 40.7778 50.4628 40.3333L46.3294 38.0667C45.6183 37.6222 44.885 37.6 44.1294 38C43.3739 38.4 42.9961 39.0445 42.9961 39.9333ZM44.5961 39.9333C44.5961 39.6667 44.6628 39.4889 44.7961 39.4C44.9294 39.3111 45.0628 39.2667 45.1961 39.2667C45.3294 39.2667 45.4405 39.3111 45.5294 39.4L49.6628 41.8C49.9294 41.8889 50.0628 42.0667 50.0628 42.3333C50.0628 42.6 49.9294 42.7778 49.6628 42.8667L45.5294 45.2667C45.3517 45.3556 45.1516 45.3333 44.9294 45.2C44.7072 45.0667 44.5961 44.9111 44.5961 44.7333V39.9333ZM46.9961 31.6667C47.2628 31.6667 47.4628 31.6 47.5961 31.4667C47.7294 31.3333 47.7961 31.1556 47.7961 30.9333C47.7961 30.7111 47.7294 30.5111 47.5961 30.3333C47.4628 30.1556 47.285 30.0667 47.0628 30.0667C46.8405 30.0667 46.6405 30.1556 46.4628 30.3333C46.285 30.5111 46.1961 30.7111 46.1961 30.9333C46.1961 31.1556 46.285 31.3333 46.4628 31.4667C46.6405 31.6 46.8183 31.6667 46.9961 31.6667Z" fill="white"/>
</g>
<defs>
<clipPath id="clip0_2047_6398">
<rect width="40" height="40" fill="white" transform="matrix(1 0 0 -1 26.9961 67)"/>
</clipPath>
</defs>
</svg>
