<svg width="33" height="34" viewBox="0 0 33 34" fill="none" xmlns="http://www.w3.org/2000/svg">
<path d="M16.3934 18.3076C18.6451 18.3076 20.4704 16.4822 20.4704 14.2306C20.4704 11.9789 18.6451 10.1536 16.3934 10.1536C14.1417 10.1536 12.3164 11.9789 12.3164 14.2306C12.3164 16.4822 14.1417 18.3076 16.3934 18.3076Z" stroke="black" stroke-width="2.0385" stroke-linecap="round" stroke-linejoin="round"/>
<path d="M26.5881 14.2305C26.5881 23.4038 16.3956 30.5385 16.3956 30.5385C16.3956 30.5385 6.20312 23.4038 6.20312 14.2305C6.20312 11.5273 7.27697 8.9348 9.18844 7.02334C11.0999 5.11187 13.6924 4.03802 16.3956 4.03802C19.0988 4.03802 21.6913 5.11187 23.6028 7.02334C25.5143 8.9348 26.5881 11.5273 26.5881 14.2305V14.2305Z" stroke="black" stroke-width="2.0385" stroke-linecap="round" stroke-linejoin="round"/>
</svg>
