<svg width="33" height="34" viewBox="0 0 33 34" fill="none" xmlns="http://www.w3.org/2000/svg">
<path d="M11.8694 16.694C12.9267 18.8555 14.6788 20.5996 16.845 21.647C17.0035 21.7221 17.1789 21.7547 17.3538 21.7414C17.5286 21.7282 17.6971 21.6696 17.8425 21.5715L21.0322 19.4446C21.1732 19.3505 21.3355 19.2931 21.5044 19.2776C21.6732 19.2621 21.8433 19.289 21.9991 19.3558L27.9665 21.9132C28.1692 21.9993 28.3384 22.1489 28.4487 22.3396C28.5589 22.5303 28.6043 22.7516 28.5778 22.9702C28.3892 24.4461 27.6691 25.8026 26.5523 26.7858C25.4356 27.769 23.9987 28.3114 22.5108 28.3115C17.9154 28.3115 13.5081 26.4859 10.2586 23.2364C7.00914 19.987 5.18359 15.5797 5.18359 10.9842C5.18367 9.49635 5.72608 8.05951 6.70926 6.94275C7.69244 5.82598 9.04897 5.10588 10.5248 4.91727C10.7435 4.89081 10.9648 4.93613 11.1555 5.04639C11.3461 5.15665 11.4958 5.32588 11.5819 5.5286L14.1416 11.5011C14.2078 11.6556 14.2347 11.8241 14.2201 11.9915C14.2054 12.1589 14.1496 12.3202 14.0576 12.4608L11.938 15.6994C11.8415 15.8451 11.7845 16.0133 11.7725 16.1877C11.7604 16.362 11.7938 16.5364 11.8694 16.694V16.694Z" stroke="black" stroke-width="2.0385" stroke-linecap="round" stroke-linejoin="round"/>
</svg>
